<svg xmlns="http://www.w3.org/2000/svg" width="960" height="6388"><g fill="#BF846B"><path d="M580.8 4052.397c.439 0 .883-.03 1.33-.098 4.913-.728 8.307-5.307 7.579-10.224-1.468-9.92.728-17.547 3.053-25.623 2.439-8.471 4.961-17.23 2.252-27.264-1.296-4.8-6.237-7.641-11.03-6.341-4.795 1.297-7.631 6.24-6.336 11.04 1.398 5.178-.177 10.65-2.172 17.58-2.496 8.671-5.604 19.461-3.563 33.247a9.002 9.002 0 0 0 8.888 7.683zm-41.493 0c.437 0 .882-.03 1.328-.098 4.915-.729 8.307-5.307 7.58-10.225-1.468-9.92.727-17.547 3.053-25.623 2.439-8.473 4.96-17.23 2.253-27.264-1.296-4.8-6.236-7.641-11.03-6.341-4.795 1.297-7.631 6.24-6.336 11.04 1.398 5.178-.177 10.65-2.173 17.58-2.497 8.67-5.603 19.461-3.563 33.248a9.002 9.002 0 0 0 8.888 7.683zm-331.303-127.381c-2.789.924-6.847 1.6-10.866 2.006a8.964 8.964 0 0 0 .788-3.674v-14.46a8.967 8.967 0 0 0-2.443-6.155c4.533.377 9.35 1.107 12.523 2.158.937.311 1.89.459 2.826.459a9.002 9.002 0 0 0 8.539-6.178c1.56-4.72-1-9.813-5.715-11.374-8.027-2.66-19.317-3.369-24.721-3.369-5.407 0-16.696.71-24.724 3.369-4.716 1.561-7.274 6.653-5.714 11.374 1.56 4.72 6.646 7.282 11.364 5.72 3.173-1.051 7.99-1.78 12.522-2.158a8.967 8.967 0 0 0-2.443 6.156v14.46c0 1.31.286 2.552.788 3.674-4.02-.407-8.078-1.083-10.866-2.006-4.715-1.563-9.803.998-11.365 5.719-1.561 4.72.997 9.813 5.713 11.376 8.027 2.66 19.318 3.37 24.725 3.37s16.697-.71 24.724-3.37c4.716-1.563 7.274-6.656 5.713-11.376-1.566-4.723-6.653-7.285-11.368-5.721zm-53.988 37.403c4.926.657 9.444-2.818 10.095-7.747.65-4.93-2.815-9.453-7.739-10.104-13.064-1.728-39.885.28-51.14 3.095-4.82 1.207-7.75 6.095-6.545 10.92a9 9 0 0 0 8.719 6.821c.722 0 1.455-.088 2.188-.271 9.276-2.324 33.816-4.118 44.422-2.714zm7.176 12.89c-12.738 3.384-36.772 15.471-46.105 22.367a9.007 9.007 0 0 0-1.894 12.59 8.978 8.978 0 0 0 7.242 3.656 8.955 8.955 0 0 0 5.335-1.76c7.691-5.683 29.696-16.703 40.038-19.45 4.8-1.276 7.659-6.206 6.385-11.013-1.276-4.805-6.197-7.667-11.001-6.39z"/><path d="M598.234 4062.116h-78.22c-8.69 0-15.76 7.077-15.76 15.775v4.706h-22.305c-11.784 0-21.372 9.597-21.372 21.393v5.65c-6.775 1.648-12.975 5.149-17.975 10.256-7.2 7.35-10.587 7.17-10.918 7.134-2.294-.285-8.51-3.516-16.231-13.502a123.987 123.987 0 0 0-6.275-21.791c11.208-4.378 21.617-9.388 31.127-15.028 46.177-27.385 70.586-69.183 70.586-120.87 0-22.926-4.665-45.233-13.61-66.178 24.85-37.17 31.686-82.832 18.691-126.142a35.771 35.771 0 0 0-30.08-25.266c-43.12-5.088-85.56 8.412-117.383 37.104-28.866-10.324-60.214-15.757-92.55-15.757s-63.683 5.434-92.55 15.757c-31.82-28.692-74.265-42.189-117.382-37.101a35.77 35.77 0 0 0-30.082 25.267c-12.996 43.307-6.156 88.97 18.691 126.14-8.945 20.944-13.61 43.251-13.61 66.177 0 42.133 15.656 77.013 46.533 103.674 15.14 13.074 33.602 23.841 55.165 32.26a125.16 125.16 0 0 0-3.107 8.988c-.173.088-.353.162-.523.254-30.924 16.382-51.233-12.103-56.72-21.226-5.204-8.65-13.462-14.755-23.253-17.188-9.79-2.433-19.941-.906-28.583 4.304-8.641 5.21-14.74 13.476-17.172 23.277s-.903 19.963 4.3 28.611c24.257 40.32 60.683 62.524 102.569 62.524 7.154 0 14.333-.693 21.437-2.042 3.633 10.044 8.527 19.548 14.496 28.356-8.682 15.997-12.66 20.498-30.986 20.667l-1.136.006c-20.547 0-25.712-5.042-36.011-15.09-8.765-8.553-20.138-19.639-39.93-26.55-.081-.03-.161-.06-.244-.087-4.817-1.668-10.125-3.092-16.02-4.17-7.092-1.305-14.26.242-20.19 4.347-5.927 4.101-9.906 10.268-11.2 17.364-2.673 14.646 7.057 28.739 21.691 31.417 14.116 2.58 19.73 8.058 28.231 16.353 13.153 12.836 31.17 30.42 73.806 30.42l1.468-.007c37.642-.348 56.775-16.46 69.296-34.609 2.72 15.385 2.675 37.84-.227 61.74-2.512 20.694 12.262 39.575 32.938 42.09a38.28 38.28 0 0 0 4.588.278c19.052 0 35.153-14.293 37.455-33.245 1.503-12.376 3.052-30.216 2.706-49.196a152.2 152.2 0 0 0 22.594-1.157c.361 12.476-.357 26.755-2.115 41.231-2.513 20.693 12.262 39.572 32.937 42.09 1.526.184 3.07.278 4.59.278 15.337 0 29.432-9.595 35.08-23.876 1.827-4.622-.435-9.854-5.053-11.683-4.616-1.827-9.844.433-11.673 5.058-3.25 8.22-11.893 13.44-20.778 12.348-10.826-1.319-18.565-11.206-17.248-22.042 2.026-16.685 2.748-32.675 2.142-46.774 13.744-3.47 26.665-8.827 38.427-15.757 1.17 10.693 1.579 22.479 1.18 35.262-.154 4.97 3.746 9.124 8.71 9.278.096.003.191.004.286.004 4.837 0 8.832-3.848 8.984-8.723.543-17.438-.31-33.305-2.529-47.275 14.122-11.287 25.85-25.117 34.361-40.724 6.535 2.57 13.254 4.314 20.078 5.163 3.188.395 6.429.595 9.632.595 16.111 0 40.383-5.175 64.532-29.83a37.598 37.598 0 0 0 7.712-11.523v1.398c0 12.35 10.038 22.397 22.375 22.397h64.99c12.338 0 22.376-10.047 22.376-22.397v-84.81c0-8.698-7.07-15.775-15.76-15.775zm-478 101.194c-35.33 0-66.284-19.11-87.157-53.807a19.687 19.687 0 0 1-2.252-14.984 19.666 19.666 0 0 1 8.993-12.19 19.64 19.64 0 0 1 14.97-2.254 19.651 19.651 0 0 1 12.178 9.003c13.095 21.766 37.993 41.512 68.193 32.869-.595 4.953-.903 9.96-.903 15.013 0 8.513.874 16.837 2.524 24.907a96.976 96.976 0 0 1-16.545 1.443zm-88.888 55.855a76.898 76.898 0 0 0-5.973-1.343c-4.877-.892-8.12-5.588-7.229-10.47a8.937 8.937 0 0 1 3.733-5.787 8.93 8.93 0 0 1 6.724-1.448 96.81 96.81 0 0 1 7.391 1.65c-.475 5.608-2.01 12.024-4.646 17.398zm456.475-348.418c-11.466-19.895-27.034-38.22-46.363-54.237a232.755 232.755 0 0 0-3.978-3.217c21.823-17.55 45.714-26.136 64.653-30.317 3.774 20.918 4.734 53.967-14.312 87.771zm-4.035-114.612a17.775 17.775 0 0 1 13.675 9.437c-22 4.955-49.889 15.302-75.007 36.801-11.045-7.38-22.775-13.864-35.062-19.404 27.066-21.236 61.472-30.955 96.394-26.834zm-415.655 0c34.925-4.12 69.33 5.599 96.395 26.834-12.289 5.538-24.016 12.023-35.062 19.404-25.115-21.5-53.007-31.846-75.007-36.801a17.779 17.779 0 0 1 13.674-9.437zm-18.344 26.841c18.939 4.18 42.83 12.769 64.654 30.316a228.32 228.32 0 0 0-3.979 3.218c-19.327 16.017-34.896 34.342-46.361 54.238-19.048-33.805-18.09-66.854-14.314-87.772zm75.709 481.32l-1.318.007c-35.316 0-49.094-13.447-61.256-25.316-4.663-4.55-9.198-8.97-15.031-12.698 2.69-5.69 4.445-11.848 5.39-17.741 9.52 5.192 16.101 11.61 22.198 17.561 11.566 11.284 20.7 20.198 48.563 20.198l1.273-.006c24.639-.228 34.276-9.148 42.881-23.441a138.456 138.456 0 0 0 13.271 12.705c-9.76 15.158-23.712 28.433-55.971 28.731zm126.346 52.086c-1.205 9.927-9.632 17.414-19.6 17.414-.8 0-1.615-.049-2.423-.147-10.826-1.317-18.563-11.206-17.248-22.042 2.49-20.504 3.002-39.758 1.588-55.48a147.74 147.74 0 0 0 40.223 11.743c.472 18.614-1.06 36.332-2.54 48.512zm-5.363-203.706c9.585.573 19.504.862 29.48.862 43.582 0 82.89-5.41 116.231-15.843a106.126 106.126 0 0 1 5.871 20.712c.033.252.08.503.135.752a107.025 107.025 0 0 1 1.482 17.8c0 63.1-55.5 114.436-123.717 114.436s-123.718-51.337-123.718-114.436a106.25 106.25 0 0 1 3.508-27.176c.037-.13.075-.26.108-.392a107.052 107.052 0 0 1 3.855-11.655c13.254 4.133 27.515 7.487 42.756 10.043a9 9 0 0 0 10.357-7.391c.821-4.904-2.486-9.546-7.385-10.367-17.023-2.854-32.689-6.734-46.948-11.616a8.99 8.99 0 0 0-1.47-.53c-23.034-8.052-42.36-18.74-57.714-31.996-26.736-23.087-40.294-53.381-40.294-90.04 0-98.278 97.321-178.232 216.945-178.232s216.945 79.953 216.945 178.231c0 45.618-20.782 81.073-61.766 105.381-10.995 6.52-23.332 12.142-36.851 16.845-.093.031-.186.061-.278.096-32.973 11.427-73.002 17.373-118.05 17.373a480.06 480.06 0 0 1-28.41-.828c-4.973-.308-9.218 3.488-9.513 8.45-.298 4.963 3.482 9.226 8.441 9.521zm237.216 47.545c-15.876 16.21-33.266 24.43-51.686 24.43-2.467 0-4.964-.154-7.417-.458-5.005-.623-9.957-1.87-14.803-3.695a124.083 124.083 0 0 0 7.83-40.238c4.05 2.576 8.052 4.168 11.878 4.643 8.188.991 16.92-3.181 25.95-12.401a19.822 19.822 0 0 1 5.13-3.763v7.151c0 11.797 9.588 21.394 21.372 21.394h4.11a19.891 19.891 0 0 1-2.364 2.937zm-1.746-20.943a3.39 3.39 0 0 1-3.384-3.388v-7.153a19.618 19.618 0 0 1 4.852 3.486 19.67 19.67 0 0 1 4.601 7.055zm22.304-7.864a37.593 37.593 0 0 0-8.243-12.05c-4.92-4.827-10.92-8.149-17.445-9.737v-5.64a3.389 3.389 0 0 1 3.384-3.387h22.304zm91.752 31.287a4.393 4.393 0 0 1-4.387 4.391h-64.99a4.394 4.394 0 0 1-4.387-4.39v-82.58h73.764z"/><path d="M253.016 3945.574h45.89c4.966 0 8.993-4.03 8.993-9.003s-4.027-9.003-8.994-9.003h-45.889c-4.967 0-8.994 4.03-8.994 9.003s4.026 9.003 8.994 9.003zm134.792 9.098c.651 4.93 5.176 8.402 10.095 7.747 10.607-1.406 35.146.39 44.423 2.714a9.044 9.044 0 0 0 2.188.271 9 9 0 0 0 8.719-6.822c1.205-4.824-1.726-9.712-6.544-10.919-11.257-2.817-38.08-4.825-51.141-3.095-4.925.653-8.39 5.174-7.74 10.104zm49.025 43.004c-9.333-6.896-33.367-18.981-46.106-22.368-4.796-1.27-9.726 1.586-11 6.391-1.275 4.807 1.584 9.737 6.385 11.013 10.343 2.747 32.347 13.767 40.038 19.45a8.95 8.95 0 0 0 5.335 1.76 8.98 8.98 0 0 0 7.243-3.656c2.95-4 2.101-9.637-1.895-12.59zm-104.281-66.942c-1.562 4.72.996 9.814 5.712 11.376 8.026 2.66 19.318 3.37 24.725 3.37s16.698-.71 24.724-3.37c4.717-1.562 7.274-6.656 5.713-11.376-1.56-4.72-6.65-7.282-11.364-5.718-2.79.924-6.848 1.6-10.867 2.006a8.964 8.964 0 0 0 .788-3.674v-14.46a8.967 8.967 0 0 0-2.443-6.155c4.534.377 9.35 1.107 12.523 2.158.937.311 1.89.459 2.825.459a9 9 0 0 0 8.538-6.178c1.56-4.72-.997-9.813-5.714-11.374-8.027-2.66-19.317-3.369-24.722-3.369-5.406 0-16.696.71-24.723 3.369-4.716 1.561-7.274 6.653-5.714 11.374a8.99 8.99 0 0 0 11.365 5.72c3.173-1.051 7.988-1.78 12.522-2.158a8.967 8.967 0 0 0-2.443 6.156v14.46c0 1.31.286 2.552.788 3.674-4.02-.407-8.078-1.083-10.866-2.007a8.994 8.994 0 0 0-11.367 5.717zM820.654 4926.581c4.969 0 8.994-4.03 8.994-9.006v-14.018c0-4.974-4.025-9.005-8.994-9.005-4.967 0-8.993 4.03-8.993 9.005v14.018c0 4.975 4.025 9.006 8.993 9.006z"/><path d="M949.842 5298.343H878.18l-30.66-94.834a88.858 88.858 0 0 0-19.813-33.538c11.143-16.655 18.054-35.484 20.179-55.079l.092-.077c15.383-13.313 17.084-36.675 3.79-52.08a36.842 36.842 0 0 0-7.107-6.35c13.575-5.622 25.846-12.225 36.622-19.766 37.723-26.395 57.662-64.57 57.662-110.4 0-22.211-4.51-43.823-13.152-64.118 24.058-36.081 30.667-80.376 18.065-122.39-4.01-13.366-15.544-23.056-29.383-24.69-41.81-4.93-82.96 8.136-113.84 35.927-27.96-9.982-58.311-15.236-89.618-15.236-31.016 0-61.46 5.291-89.544 15.303-30.892-27.836-72.085-40.93-113.916-35.992a34.942 34.942 0 0 0-29.384 24.69c-12.614 42.048-5.983 86.382 18.126 122.478a166.421 166.421 0 0 0-7.391 21.1c-7.134-3.624-15.15-5.206-23.313-4.494-11.527 1.01-21.97 6.455-29.407 15.33l-54.905 65.521c-15.354 18.323-12.958 45.736 5.34 61.11l75.39 63.345 18.481 15.73c-1.544 6.357-1.369 13.037.59 19.459 2.88 9.432 9.255 17.178 17.952 21.81.085.045.174.084.26.128-6.055.9-11.909 2.391-17.452 4.5-18.982 7.225-32.965 21.26-39.376 39.52-4.829 13.76 2.423 28.892 16.169 33.732a26.357 26.357 0 0 0 8.756 1.498c11.194 0 21.212-7.107 24.925-17.685.383-1.088.992-2.413 2.207-3.744.223-.203.434-.415.632-.637 1.233-1.152 2.964-2.28 5.456-3.227 11.412-4.34 29.288-1.588 44.484 6.854 21.036 11.686 41.913 13.578 62.148 5.664l12.69 10.8c-2.14 13.616-7.439 29.695-11.99 42.586-3.282 9.299-2.753 19.322 1.492 28.222 4.246 8.899 11.698 15.611 20.988 18.9a36.78 36.78 0 0 0 12.287 2.118c15.596 0 29.566-9.895 34.767-24.625 1.76-4.981 3.35-9.675 4.793-14.147l27.252 23.193a88.664 88.664 0 0 0 44.823 19.955l99.388 13.877c1.065.15 2.127.222 3.18.222 6.65 0 12.957-2.91 17.316-8.113a22.852 22.852 0 0 0 2.854-4.333h72.762c4.968 0 8.994-4.03 8.994-9.006-.005-4.978-4.032-9.011-9-9.011zm-113.626-197.159c-20.821 18.02-62.16 34.427-86.73 34.427h-.148c-10.417-.03-18.866-8.536-18.837-18.964.029-10.377 8.462-18.824 18.814-18.862.097.002.195 0 .295 0 13.041-.057 45.857-11.336 61.907-25.223 7.88-6.819 19.832-5.946 26.642 1.943 6.809 7.893 5.938 19.86-1.943 26.68zm-86.904 52.437h.172c8.18 0 17.628-1.406 27.525-3.896l31.54 26.843a70.84 70.84 0 0 1 9.784 10.042l-35.736 42.645-252.575-212.217 37.917-45.247 149.222 127.001a36.693 36.693 0 0 0-4.65 17.805c-.053 20.36 16.444 36.969 36.801 37.024zm64.885 4.116l-16.909-14.391c10.222-3.833 20.337-8.55 29.511-13.816-2.762 9.882-6.997 19.374-12.602 28.207zm102.113-314.556c-11.104-19.154-26.128-36.801-44.748-52.237a220.06 220.06 0 0 0-3.586-2.903c20.923-16.745 43.784-25.006 61.98-29.056 3.592 20.16 4.444 51.793-13.646 84.196zm-3.94-110.271a16.95 16.95 0 0 1 12.872 8.68c-21.251 4.83-48.088 14.844-72.295 35.515-10.544-7.035-21.73-13.227-33.44-18.533 36.39-28.504 76.341-27.612 92.864-25.662zm-201.354 20.815c115.763 0 209.942 77.379 209.942 172.489 0 40.255-16.815 72.433-49.977 95.636-30.695 21.478-75.165 34.772-128.601 38.446-4.956.341-8.698 4.64-8.357 9.602a8.997 8.997 0 0 0 9.589 8.367 413.42 413.42 0 0 0 22.098-2.112c-6.956 2.27-12.98 3.619-16.198 3.619a36.585 36.585 0 0 0-20.022 5.87l-115.737-98.502c6.343-2.943 12.162-5.254 15.902-6.249 4.802-1.276 7.66-6.208 6.386-11.014a8.997 8.997 0 0 0-11-6.395c-7.383 1.962-17.803 6.632-26.261 10.915l-23.749-20.212c.05-.012.1-.016.149-.028 8.964-2.247 32.684-3.985 42.94-2.625 4.922.643 9.444-2.818 10.095-7.748.65-4.93-2.815-9.457-7.738-10.109-12.687-1.676-38.734.27-49.66 3.007-3.914.981-6.582 4.39-6.8 8.222l-37.364-31.392-.003-.004c-.001-.002-.003 0-.004-.002l-22.11-18.576c8.523-38.102 32.69-72.99 68.53-98.697.133-.096.27-.187.404-.283l.044-.032c38.15-27.207 86.955-42.193 137.502-42.193zm-201.354-20.815c16.532-1.951 56.524-2.841 92.931 25.718-11.745 5.302-22.96 11.48-33.497 18.487-24.21-20.677-51.052-30.693-72.306-35.525a16.952 16.952 0 0 1 12.872-8.68zm-17.587 26.074c18.198 4.051 41.061 12.314 61.986 29.06-20.064 15.926-36.379 34.67-48.283 55.23-18.146-32.434-17.298-64.109-13.703-84.29zm-93.892 247.974c-10.7-8.99-12.1-25.022-3.122-35.735l54.904-65.52c4.35-5.19 10.457-8.375 17.198-8.965 6.731-.595 13.307 1.48 18.49 5.837l22.549 18.945-87.47 104.381zm36.326 30.521l87.469-104.38 32.218 27.07-43.73 52.184-.005.006c-.003.002-.004.005-.005.007l-43.73 52.184zm53.92 45.465l-7.96-6.774 37.99-45.335 13.468 11.316c-9.603 1.058-18.256 5.732-24.411 13.211-8.099 9.842-14.83 20.395-19.087 27.582zm9.856 31.079a18.818 18.818 0 0 1 1.388-14.41c1.6-3.012 10.162-18.746 21.726-32.796a18.752 18.752 0 0 1 12.763-6.798c.618-.06 1.235-.089 1.847-.089a18.72 18.72 0 0 1 11.978 4.32c8.037 6.631 9.187 18.575 2.565 26.623-7.678 9.333-14.63 21.053-17.525 26.505a18.882 18.882 0 0 1-5.937 6.681c-.052.032-.103.066-.155.1a18.884 18.884 0 0 1-10.61 3.255c-3.101 0-6.078-.747-8.845-2.221a18.777 18.777 0 0 1-9.195-11.17zm-22.939 82.791a8.45 8.45 0 0 1-7.956 5.649 8.467 8.467 0 0 1-2.796-.48c-4.385-1.545-6.7-6.377-5.159-10.768a45.762 45.762 0 0 1 2.91-6.565c4.451 1.4 10.21 3.9 14.757 8.166a29.481 29.481 0 0 0-1.756 3.998zm78.474-10.527c-20.174-11.208-43.011-14.252-59.599-7.94a38.249 38.249 0 0 0-4.21 1.904c-4.745-4.626-10.182-7.881-15.287-10.152 3.966-3.08 8.491-5.629 13.507-7.538 21.423-8.152 49-4.804 73.77 8.958a56.824 56.824 0 0 0 6.286 3.028l22.51 19.16c-12.01 2.118-24.217-.332-36.977-7.42zm106.695 93.41c-2.665 7.547-9.823 12.618-17.81 12.618a18.86 18.86 0 0 1-6.294-1.09c-9.819-3.476-14.985-14.303-11.513-24.135 3.714-10.519 7.907-23.095 10.723-35.235l31.76 27.031c-1.933 6.388-4.194 13.246-6.866 20.81zm96.31 17.166a70.814 70.814 0 0 1-6.393-1.204l3.27-3.901c3.194-3.81 2.698-9.49-1.107-12.688a8.985 8.985 0 0 0-12.671 1.11l-7.272 8.676a70.583 70.583 0 0 1-11.529-7.87l-85.842-73.06-.018-.015-20.505-17.451-.014-.011-69.447-59.106a37.06 37.06 0 0 0 3.61-5.51c2.58-4.859 8.755-15.28 15.526-23.508 6.203-7.539 8.904-16.825 8.311-25.88l198.292 166.607-5.928 7.073c-3.193 3.812-2.697 9.491 1.108 12.688a8.945 8.945 0 0 0 5.777 2.107 8.967 8.967 0 0 0 6.894-3.217l11.706-13.97.003-.002.002-.004 37.515-44.767a71.18 71.18 0 0 1 2.294 6.094l15.116 46.756-40.087 47.839zm103.62 12.246c-.5.598-1.927 1.944-4.231 1.63l-29.757-4.154 25.605-30.554 9.255 28.622c.718 2.227-.371 3.859-.871 4.456z"/><path d="M736.324 4937.345a38.457 38.457 0 0 0 29.013-13.231c3.264-3.75 2.872-9.438-.872-12.707a8.985 8.985 0 0 0-12.69.873 20.487 20.487 0 0 1-15.453 7.053c-5.92 0-11.553-2.57-15.455-7.053a8.983 8.983 0 0 0-12.69-.872c-3.744 3.269-4.133 8.957-.87 12.706a38.466 38.466 0 0 0 29.017 13.231zm106.668 43.549c9.996 2.657 31.266 13.313 38.701 18.809a8.944 8.944 0 0 0 5.334 1.76 8.978 8.978 0 0 0 7.243-3.658c2.95-4 2.102-9.638-1.895-12.593-9.062-6.7-32.4-18.438-44.769-21.727a8.995 8.995 0 0 0-11.001 6.393c-1.274 4.808 1.585 9.74 6.387 11.016zm-191-54.313c4.969 0 8.994-4.03 8.994-9.006v-14.018c0-4.974-4.025-9.005-8.994-9.005-4.968 0-8.993 4.03-8.993 9.005v14.018c0 4.975 4.025 9.006 8.993 9.006zm202.534 24.956c10.257-1.357 33.975.38 42.94 2.625a9.041 9.041 0 0 0 2.189.271 9 9 0 0 0 8.719-6.824c1.205-4.826-1.726-9.714-6.544-10.922-10.927-2.735-36.97-4.683-49.66-3.007-4.924.652-8.388 5.177-7.738 10.108.65 4.932 5.182 8.39 10.094 7.749z"/><g transform="translate(0 5692)"><path d="M254.02 174.885c4.894 0 9.804-1.35 14.3-3.943 5.02-2.896 8.954-7.016 11.375-11.912 2.202-4.453.374-9.848-4.085-12.049-4.454-2.2-9.856-.373-12.059 4.082-.827 1.674-2.33 3.2-4.235 4.3-1.901 1.097-3.981 1.634-5.843 1.514-4.963-.327-9.246 3.436-9.567 8.395-.322 4.957 3.439 9.237 8.401 9.559.57.036 1.14.054 1.713.054zm41.852 4.326a8.97 8.97 0 0 0 5.477-1.862c5.79-4.443 21.478-12.03 27.741-13.82 4.78-1.366 7.547-6.346 6.18-11.122-1.369-4.776-6.347-7.537-11.131-6.174-8.21 2.346-26.055 10.938-33.758 16.849a8.99 8.99 0 0 0-1.656 12.613 8.998 8.998 0 0 0 7.147 3.516zM494.384 47.748h32.026l-34.754 27.413a12.887 12.887 0 0 0-4.191 14.338 12.904 12.904 0 0 0 12.181 8.658h46.746c4.973 0 9.003-4.027 9.003-8.995 0-4.968-4.03-8.995-9.003-8.995h-32.027l34.754-27.413a12.887 12.887 0 0 0 4.192-14.338 12.904 12.904 0 0 0-12.182-8.659h-46.745c-4.973 0-9.003 4.028-9.003 8.996s4.03 8.995 9.003 8.995zm-88.248 37.97h32.026l-34.753 27.413a12.887 12.887 0 0 0-4.192 14.339 12.904 12.904 0 0 0 12.181 8.658h46.746c4.973 0 9.003-4.027 9.003-8.995 0-4.968-4.03-8.995-9.003-8.995h-32.026l34.753-27.413c4.307-3.398 5.991-9.16 4.192-14.339s-6.696-8.658-12.181-8.658h-46.746c-4.973 0-9.003 4.028-9.003 8.996 0 4.967 4.032 8.995 9.003 8.995zM110.563 282.03a8.98 8.98 0 0 0 6.474 2.743c2.253 0 4.508-.84 6.256-2.528 4.684-4.526 19.104-14.305 25.85-17.093 4.594-1.898 6.778-7.16 4.878-11.75-1.902-4.59-7.165-6.773-11.76-4.874-8.973 3.708-25.343 14.853-31.483 20.785-3.575 3.45-3.671 9.145-.215 12.717z"/><ellipse cx="219.411" cy="211.153" rx="8.8" ry="8.793"/><path d="M589.455 221.317c-3.616-3.41-9.314-3.247-12.727.367a8.99 8.99 0 0 0 .367 12.716c14.81 13.965 21.324 30.655 19.365 49.603-1.697 16.408-10.12 33.816-23.106 47.756-10.27 11.024-23.814 18.552-39.167 21.769-75.127 15.743-198.138 3.273-253.079-6.57 35.928-39.482 128.202-119.457 167.06-146.453a22.034 22.034 0 0 0 5.927-6.143c36.588 2.907 66.895 9.424 90.122 19.407a9.008 9.008 0 0 0 11.829-4.709c1.964-4.563-.146-9.854-4.713-11.818-24.75-10.638-56.522-17.596-94.513-20.716a22.183 22.183 0 0 0-8.432-12.078c-7.428-5.327-15.959-9.042-26.084-11.362-8.872-2.03-18.476-1.893-27.78.402-4.302 1.061-8.701 2.402-13.19 4.016-2.334-9.512-6.158-18.909-11.444-28.055-8.166-14.133-18.922-26.27-31.778-36.118 1.74-32.248-10.656-63.209-34.49-85.635a28.237 28.237 0 0 0-30.516-5.375c-28.836 12.398-50.658 35.983-60.613 65.233-21.428 4.085-42.619 11.963-62.516 23.44-20.126 11.61-37.45 26.101-51.513 42.388-30.35-6.034-61.729 1.053-86.91 19.82A28.183 28.183 0 0 0 .955 182.293c7.524 31.848 28.177 58.062 57.017 72.678 1.352 10.309 3.962 20.45 7.92 30.25a9.006 9.006 0 0 0 11.72 4.976c4.61-1.86 6.839-7.102 4.977-11.709-3.834-9.489-6.198-19.36-7.199-29.408a8.937 8.937 0 0 0-.163-1.738c-1.752-20.9 2.382-42.503 11.581-62.968.392-.63.707-1.317.938-2.05 5.337-11.41 12.254-22.441 20.602-32.774.302-.316.578-.658.833-1.019 13.262-16.155 30.044-30.561 49.8-41.957 19.463-11.228 40.237-18.667 61.127-22.102a8.935 8.935 0 0 0 1.56-.255c16.922-2.62 33.902-2.608 50.3.17 19.297 3.268 36.557 10.171 50.992 20.184.35.296.73.559 1.126.798 12.378 8.816 22.625 19.95 30.21 33.075 4.967 8.595 8.357 17.388 10.174 26.215-8.971 4.352-18.268 9.7-27.875 16.03-8.646-.899-28.042.255-37.302 2.756-4.8 1.296-7.64 6.235-6.342 11.031 1.085 4.01 4.719 6.65 8.686 6.65.777 0 1.57-.102 2.355-.315 1.703-.46 4.017-.868 6.628-1.215-12.349 9.8-25.138 21.042-38.34 33.718-40.13 38.524-72.442 79.17-84.47 94.856v.001a22.316 22.316 0 0 0-2.25 3.602c-35.042 5.457-62.813-1.832-82.587-21.717-3.504-3.525-9.205-3.543-12.731-.041a8.989 8.989 0 0 0-.041 12.72c18.905 19.013 44.216 28.73 74.23 28.73 6.581 0 13.395-.478 20.41-1.418a22 22 0 0 0 14.7 13.044c8.766 2.358 18.375 3.533 28.222 3.533 10.956 0 22.207-1.455 32.918-4.355a31.152 31.152 0 0 0 2.032-.634c22.938 5.163 69.2 11.936 120.93 15.28 17.933 1.16 38.9 2.064 60.669 2.064 31.834 0 65.373-1.937 93.57-7.847 19.013-3.984 35.837-13.362 48.652-27.119 15.83-16.993 25.715-37.65 27.835-58.165 2.529-24.459-6.085-46.774-24.914-64.532zM56.952 233.639c-19.477-12.808-29.515-30.182-34.595-43.166 11.948-3.494 27.286-5.986 44.191-3.928-5.793 15.414-9.077 31.31-9.596 47.094zm17.144-64.185c-21.23-3.588-40.51-.84-55.407 3.348a10.171 10.171 0 0 1 3.635-5.177c9.263-6.904 32.43-21.028 63.577-17.958a177.136 177.136 0 0 0-11.805 19.787zM255.952 64.546a176.246 176.246 0 0 0-23.055.283c12.921-28.446 36.722-41.419 47.33-45.98a10.212 10.212 0 0 1 6.307-.554c-11.074 10.79-23.075 26.1-30.582 46.251zm19.028 2.108c-.156-.027-.312-.048-.468-.074 6.67-15.658 16.498-27.686 25.501-36.277 8.71 10.883 18.745 28.245 20.116 51.483-13.541-7.215-28.71-12.349-45.149-15.132zm-16.818 277.43c-.104.048-.206.1-.308.151-.61.274-1.24.5-1.884.673-17.353 4.698-36.212 4.994-51.748.813-1.8-.483-2.509-1.852-2.77-2.625-.222-.654-.603-2.349.65-3.983 11.78-15.362 43.411-55.156 82.652-92.825 34.541-33.158 65.662-55.909 92.851-67.928.301-.111.593-.238.876-.38 7.054-3.068 13.846-5.42 20.357-7.026 6.579-1.621 13.301-1.739 19.441-.33 7.749 1.774 14.164 4.535 19.61 8.44 1.527 1.095 1.744 2.593 1.738 3.389a4.335 4.335 0 0 1-.037.491c-.033.14-.053.286-.078.428-.174.751-.602 1.652-1.625 2.362-41.417 28.773-142.554 116.798-175.106 154.77a14.112 14.112 0 0 1-4.62 3.58z"/><path d="M167.395 209.407c-4.455-2.198-9.856-.372-12.059 4.082-.827 1.675-2.33 3.202-4.233 4.3-1.904 1.098-3.982 1.63-5.846 1.514-4.971-.332-9.246 3.437-9.566 8.396-.322 4.957 3.44 9.236 8.402 9.557.57.038 1.14.056 1.711.056 4.894 0 9.804-1.349 14.301-3.943 5.022-2.896 8.955-7.016 11.377-11.913 2.201-4.455.372-9.85-4.087-12.049zm-11.939 57.016c-6.882 6.844-17.767 23.38-21.182 31.202-1.988 4.553.095 9.856 4.653 11.842a9.008 9.008 0 0 0 11.853-4.649c2.604-5.968 12.206-20.5 17.38-25.645a8.99 8.99 0 0 0 .029-12.722c-3.509-3.52-9.208-3.534-12.733-.028z"/></g><g><path d="M450.093 1196.137a9 9 0 0 0-9.523-8.452c-10.551.625-31.36 6.274-39.791 10.195-4.51 2.098-6.463 7.451-4.364 11.957a9.006 9.006 0 0 0 11.965 4.361c6.541-3.043 25.181-8.066 33.255-8.545 4.968-.294 8.754-4.554 8.458-9.516zm11.236-20.914c.344 0 .69-.019 1.04-.059 4.941-.567 8.486-5.03 7.92-9.97l-1.3-11.297c-.57-4.938-5.033-8.482-9.976-7.914-4.941.567-8.486 5.03-7.92 9.97l1.3 11.297c.528 4.59 4.424 7.973 8.936 7.973zm70.142.793a32.983 32.983 0 0 0 23.407-14.078 8.997 8.997 0 0 0-2.318-12.516c-4.099-2.815-9.706-1.778-12.525 2.317a14.965 14.965 0 0 1-10.623 6.395 14.966 14.966 0 0 1-11.799-3.82 9.011 9.011 0 0 0-12.723.582 8.996 8.996 0 0 0 .583 12.716 33.004 33.004 0 0 0 25.998 8.404zm66.067-16.438c.344 0 .69-.02 1.04-.06 4.941-.567 8.486-5.03 7.92-9.969l-1.3-11.298c-.569-4.938-5.034-8.481-9.976-7.914-4.941.568-8.486 5.03-7.92 9.97l1.3 11.298c.529 4.589 4.424 7.973 8.936 7.973zm139.08 165.138c3.371.406 6.73.608 10.072.608 18.35 0 36.067-6.084 50.734-17.578 17.337-13.587 28.342-33.108 30.988-54.967 2.647-21.859-3.385-43.439-16.98-60.765s-33.13-28.325-55.003-30.969c-45.158-5.455-86.331 26.812-91.793 71.935-2.647 21.86 3.385 43.44 16.98 60.766 13.597 17.327 33.13 28.326 55.003 30.97zm-54.102-89.572c3.953-32.658 31.834-56.699 63.961-56.699 2.571 0 5.174.154 7.79.47 17.096 2.067 32.365 10.664 42.993 24.206 10.629 13.543 15.34 30.41 13.273 47.496s-10.67 32.345-24.221 42.963c-13.552 10.622-30.434 15.33-47.528 13.265-17.097-2.066-32.366-10.663-42.992-24.205-10.63-13.542-15.343-30.41-13.276-47.496z"/><path d="M725.283 1291.65a20.038 20.038 0 0 0 6.583 1.117 19.86 19.86 0 0 0 8.87-2.105 19.856 19.856 0 0 0 12.885 4.733c.63 0 1.264-.03 1.898-.09h.001c18.838-1.773 34.161-16.683 36.433-35.457l2.266-18.717c2.255-18.631-6.907-36.541-23.34-45.625a19.964 19.964 0 0 0-18.569-.402 19.957 19.957 0 0 0-18.129-4.035c-18.127 4.908-31.297 20.118-33.552 38.75l-2.266 18.717c-2.275 18.772 9.047 36.904 26.92 43.115zm33.96-78.905c.104-.86.634-1.301 1.061-1.52.235-.12.545-.226.903-.226.29 0 .611.07.951.257 9.982 5.518 15.547 16.395 14.176 27.715l-2.265 18.717c-1.262 10.43-9.775 18.712-20.24 19.697a1.918 1.918 0 0 1-1.599-.588 1.916 1.916 0 0 1-.545-1.613zm-43.003 37.952l2.266-18.717c1.37-11.319 9.37-20.556 20.381-23.537a1.902 1.902 0 0 1 1.807.411c.363.314.772.868.668 1.73l-7.558 62.44a1.912 1.912 0 0 1-.915 1.436 1.924 1.924 0 0 1-1.693.19c-9.928-3.45-16.218-13.524-14.956-23.953zm-294.359-.133c2.43 0 4.852-.977 6.627-2.903 4.889-5.304 20.207-17.045 27.49-20.563 4.477-2.162 6.354-7.544 4.19-12.02-2.165-4.475-7.551-6.35-12.027-4.187-9.517 4.597-26.603 17.742-32.902 24.576a8.996 8.996 0 0 0 .525 12.717 8.976 8.976 0 0 0 6.097 2.38z"/><path d="M935.899 1055.64l-15.42-1.863-7.421-25.84a32.832 32.832 0 0 0-27.672-23.57L668.57 978.16a32.843 32.843 0 0 0-32.497 16.296l-13.373 23.327-15.42-1.864c-7.204-.87-14.313 1.115-20.024 5.589a27.033 27.033 0 0 0-7.287 8.77 223.24 223.24 0 0 0-43.895.717c-25.125 2.886-49.02 9.835-70.612 20.311-27.776-19.369-62.362-25.967-95.813-18.081a30.08 30.08 0 0 0-22.72 23.973c-6.321 35.231 3.047 70.517 25.723 97.659-4.96 17.106-6.535 34.868-4.484 52.698 2.665 23.162 11.126 43.107 25.148 59.282a8.988 8.988 0 0 0 6.81 3.107c2.09 0 4.19-.724 5.894-2.199a8.996 8.996 0 0 0 .91-12.696c-11.606-13.384-18.626-30.056-20.868-49.551-1.915-16.654-.154-33.286 5.029-49.259.19-.458.347-.928.459-1.406 6.212-18.39 16.981-35.873 31.954-51.462a164.335 164.335 0 0 1 8.168-7.93c.107-.088.206-.188.31-.282 10.754-9.698 22.866-18.073 36.018-24.982a8.996 8.996 0 0 0 1.465-.754c20.76-10.673 44.049-17.72 68.666-20.548 12.682-1.457 25.393-1.744 37.904-.86l-1.892 15.627c-1.798 14.86 8.836 28.41 23.704 30.208l13.421 1.622-.065 189.929c-14.05 3.53-29.13 6.238-44.941 8.053-42.39 4.87-79.564 2.377-109.02-7.165l-.009-.004a9.036 9.036 0 0 0-1.023-.327c-6.772-2.245-13.131-4.867-19.042-7.864-4.435-2.246-9.854-.477-12.105 3.955s-.478 9.85 3.958 12.099c4.307 2.184 8.834 4.171 13.535 5.996a99.559 99.559 0 0 0-3.963 27.876c0 21.653 6.986 41.81 18.955 58.612-1.218.822-2.433 1.47-3.623 1.91-2.323.86-5.703 1.441-11.276-1.71-6.032-3.411-7.038-6.989-8.724-20.807-1.829-14.995-4.98-40.622-33.514-54.066-.252-.13-.51-.25-.775-.358-5.938-2.709-12.924-4.91-21.218-6.38-12.578-2.23-24.627 6.183-26.86 18.75a22.99 22.99 0 0 0 3.817 17.306 23.023 23.023 0 0 0 14.947 9.54c5.255.933 8.533 1.994 10.642 3.02l.043.023c2.01.986 2.948 1.94 3.502 2.718 1.91 2.675 2.543 7.866 3.42 15.048 1.953 16.025 4.905 40.243 31.897 55.51 9.866 5.58 20.115 8.409 30.462 8.409 6.684 0 13.322-1.202 19.73-3.572 7.995-2.958 15.412-7.644 22.151-13.922a116.042 116.042 0 0 0 9.594 5.012c.692 9.294-1.57 18.985-8.587 38.818-5.82 16.454 2.84 34.572 19.303 40.388a31.618 31.618 0 0 0 10.558 1.816c13.394 0 25.393-8.482 29.86-21.105 6.612-18.69 11.043-34.043 12.084-49.591 8.929-.95 17.678-2.867 26.063-5.723 1.837 5.214 2.764 12.321-.21 20.724-5.82 16.453 2.84 34.572 19.306 40.39a31.606 31.606 0 0 0 10.554 1.815c13.395 0 25.393-8.483 29.86-21.106 4.512-12.752 6.286-25.674 5.327-38.558l154.857 18.719c1.088.13 2.171.195 3.244.195 12.23 0 23.137-8.35 26.113-20.484l72.953-297.406 13.421 1.622c1.104.133 2.199.198 3.282.198 13.534 0 25.28-10.13 26.946-23.887l2.91-24.036c1.793-14.861-8.84-28.413-23.71-30.21zm-525.387 35.27c-12.987 13.522-23.177 28.354-30.395 43.985-15.172-22.422-17.625-45.521-16.91-61.273 14.088 1.662 31.539 5.967 48.457 16.116-.383.392-.774.777-1.152 1.172zm14.847-13.817c-20.424-13.418-41.755-19.049-58.89-21.201a12.062 12.062 0 0 1 7.32-5.15c12.614-2.973 42.986-7.173 73.676 10.44a192.652 192.652 0 0 0-22.106 15.911zm-43.248 258.02c-2.57-.773-5.43-1.449-8.64-2.019a5.164 5.164 0 0 1-4.18-5.98c.498-2.798 3.188-4.67 5.984-4.176 4.005.71 7.574 1.607 10.796 2.646-1.021 3.866-2.436 6.974-3.96 9.53zm186.208-23.779c14.965-1.72 29.331-4.212 42.877-7.413l-.001 4.101c-19.673 7.47-42.687 8.756-52.696 6.144-1.09-.283-1.746-.544-2.104-.714-.602-.283-1.21-.54-1.823-.782 4.53-.364 9.107-.803 13.747-1.336zM463.764 1415.09c-11.378 4.21-23.444 2.953-35.067-3.622-19.084-10.794-21.106-27.384-22.892-42.021-1.29-10.572-2.724-18.98-8.148-25.23a53.45 53.45 0 0 0 4.61-9.987c10.764 9.31 12.341 22.148 13.783 33.969 1.634 13.404 3.177 26.063 17.73 34.293 9.003 5.092 17.886 6.076 26.4 2.926 3.126-1.157 6.146-2.844 9.047-5.011a111.48 111.48 0 0 0 7.745 7.04c-4.159 3.369-8.576 5.93-13.208 7.643zm72.148 61.888a13.685 13.685 0 0 1-12.878 9.106c-1.545 0-3.077-.265-4.554-.787-7.101-2.509-10.837-10.323-8.326-17.419 5.733-16.204 9.043-27.486 9.634-38.18a120.235 120.235 0 0 0 27.082 4.276c-1.144 13.042-5.13 26.532-10.958 43.004zm16.226-60.885c-52.677 0-95.534-39.511-95.534-88.076 0-7.571 1.042-15.022 3.084-22.247 19.612 5.368 41.847 8.098 66.184 8.098.921 0 1.852-.014 2.779-.022a31.749 31.749 0 0 0-4.418 2.677 8.998 8.998 0 0 0-1.973 12.575c2.93 4.016 8.563 4.9 12.583 1.972a13.68 13.68 0 0 1 13.881-1.329c1.525.718 3.284 1.338 5.23 1.845 15.517 4.047 45.32 1.747 69.494-9.15.387-.15.765-.32 1.125-.521 6.162-2.868 11.94-6.294 16.978-10.34 5.873-4.713 14.486-3.773 19.204 2.097 4.715 5.87 3.775 14.477-2.098 19.19-11.002 8.83-25.093 15.96-40.901 20.834-.129.036-.257.072-.384.112a162.61 162.61 0 0 1-21.528 4.992c-8.195 1.326-16.238 2-23.91 2-13.952 0-26-2.199-34.843-6.358a13.656 13.656 0 0 1-3.723-2.573c-3.562-3.47-9.264-3.398-12.736.161a8.996 8.996 0 0 0 .161 12.727 31.624 31.624 0 0 0 8.626 5.97c11.226 5.281 25.926 8.073 42.513 8.073 8.632 0 17.644-.75 26.788-2.23a182.77 182.77 0 0 0 12.453-2.478l-.008 23.159c-16.785 12.174-37.573 18.842-59.027 18.842zm81.431 47.394a13.683 13.683 0 0 1-12.88 9.107c-1.544 0-3.075-.265-4.552-.786-7.101-2.51-10.837-10.325-8.326-17.42 4.887-13.816 3.02-25.498-.185-33.851a115.13 115.13 0 0 0 7.745-4.443c4.2 6.6 11.202 11.294 19.461 12.292l2.724.329c1.421 11.57.093 23.239-3.987 34.772zm189.03-38.413c-1.07 4.362-5.24 7.242-9.702 6.704l-175.901-21.262a8.89 8.89 0 0 1-7.82-8.793v-.006l-.002-.063.009-24.43 199.245 24.085zm10.15-41.371l-185.55-22.43c8.37-4.174 16.028-8.996 22.736-14.378 13.615-10.928 15.797-30.888 4.863-44.495-10.935-13.606-30.907-15.786-44.524-4.86-.346.278-.707.542-1.063.812l.069-200.702 265.755 32.124zm108.974-300.016l-2.91 24.036c-.605 5.007-5.175 8.593-10.184 7.981l-328.617-39.723c-5.01-.605-8.593-5.172-7.986-10.177l2.897-23.937c-.001.013-.004.027-.002.027v-.003c.033-.168.065-.337.092-.507.011-.069.013-.138.023-.207a9.071 9.071 0 0 1 3.337-5.508 9.099 9.099 0 0 1 6.746-1.883l21.319 2.578c.018.002.034.005.052.006l213.03 25.75c4.937.6 9.426-2.919 10.022-7.854.597-4.935-2.921-9.42-7.859-10.016l-199.57-24.122 9.59-16.726a14.863 14.863 0 0 1 14.705-7.375l216.815 26.208a14.857 14.857 0 0 1 12.523 10.667l5.322 18.528-17.04-2.06c-4.928-.597-9.424 2.92-10.02 7.855-.599 4.934 2.92 9.419 7.858 10.015l51.87 6.27c5.01.606 8.593 5.17 7.987 10.177z"/></g><g><path d="M358.314 2335.705c10.27-1.345 34.03.377 43.01 2.604.728.18 1.456.267 2.175.267 4.038 0 7.711-2.737 8.727-6.83 1.197-4.822-1.743-9.699-6.567-10.896-10.936-2.712-36.995-4.644-49.687-2.98-4.929.647-8.4 5.163-7.754 10.088.648 4.924 5.163 8.386 10.096 7.747zM197.632 2022.98c4.75 4.247 7.69 9.978 8.278 15.989-10.369.61-18.624 9.209-18.624 19.722v15.985c0 8.45 5.34 15.658 12.814 18.487 4.528 17.905 20.854 31.092 39.898 31.092 19.045 0 35.37-13.187 39.898-31.092 7.475-2.83 12.814-10.038 12.814-18.487v-15.985c0-10.514-8.258-19.114-18.63-19.722.562-6.042 3.378-11.662 7.93-15.674a64.022 64.022 0 0 0 7.15-7.404 8.99 8.99 0 0 0-1.251-12.658c-3.844-3.151-9.515-2.589-12.666 1.251a46.136 46.136 0 0 1-5.136 5.318c-8.412 7.41-13.464 17.917-14.074 29.107h-32.075c-.626-11.095-5.767-21.68-14.325-29.334-10.185-9.108-15.703-22.168-15.143-35.833.973-23.727 20.35-42.867 44.113-43.572 24.883-.762 45.901 18.828 46.903 43.618a8.99 8.99 0 0 0 9.356 8.623c4.966-.201 8.83-4.386 8.629-9.35-1.4-34.596-30.736-61.88-65.423-60.873-33.163.985-60.204 27.7-61.564 60.816-.777 19.056 6.922 37.272 21.128 49.976zM240 2106.266c-8.572 0-16.148-4.756-20.148-11.81h40.297c-4 7.052-11.577 11.81-20.149 11.81zm32.918-49.369c.99 0 1.794.805 1.794 1.793v15.985c0 .988-.805 1.793-1.794 1.793h-65.835a1.796 1.796 0 0 1-1.794-1.793v-15.985c0-.988.805-1.793 1.794-1.793zM240 1902.198c4.97 0 9-4.026 9-8.994v-17.21c0-4.968-4.03-8.994-9-8.994s-9 4.026-9 8.994v17.21c0 4.967 4.03 8.994 9 8.994zm73.351 87.727c-.949 4.876 2.237 9.598 7.116 10.547l17.202 3.344c.581.113 1.158.167 1.728.167 4.22 0 7.989-2.981 8.824-7.277.949-4.876-2.237-9.598-7.116-10.547l-17.202-3.344c-4.88-.945-9.601 2.234-10.552 7.11zm-164.624-58.973l14.991 9.07a8.999 8.999 0 0 0 12.36-3.035 8.992 8.992 0 0 0-3.038-12.353l-14.992-9.07c-4.25-2.573-9.787-1.213-12.36 3.036-2.574 4.249-1.213 9.78 3.039 12.352zm162.902 10.372c1.588 0 3.196-.42 4.653-1.301l14.991-9.071c4.252-2.574 5.613-8.103 3.037-12.353-2.574-4.248-8.107-5.61-12.36-3.035l-14.99 9.07a8.992 8.992 0 0 0-3.038 12.354 9.001 9.001 0 0 0 7.707 4.336z"/><path d="M473.074 2144.023c-4.02-13.273-15.564-22.897-29.415-24.514-41.844-4.897-83.029 8.073-113.937 35.642-27.99-9.906-58.378-15.119-89.72-15.119-31.345 0-61.731 5.213-89.722 15.119-30.91-27.567-72.099-40.524-113.938-35.642-13.85 1.619-25.396 11.241-29.414 24.514-12.622 41.689-6.011 85.634 18.062 121.434-8.641 20.128-13.15 41.56-13.15 63.584 0 58.144 31.63 102.405 91.472 127.995 4.57 1.951 9.859-.163 11.815-4.73 1.956-4.568-.163-9.854-4.733-11.808-25.603-10.95-45.442-25.597-58.968-43.537-14.322-18.997-21.584-41.849-21.584-67.921 0-94.302 94.278-171.02 210.16-171.02s210.161 76.72 210.161 171.02c0 43.72-20.103 77.706-59.754 101.012-36.681 21.562-88.692 32.96-150.409 32.96-32.957 0-63.299-3.261-90.182-9.692-4.832-1.155-9.692 1.824-10.848 6.653-1.157 4.83 1.824 9.685 6.657 10.84C173.881 2477.574 205.633 2481 240 2481c64.924 0 120.09-12.256 159.533-35.442 44.897-26.392 68.627-66.682 68.627-116.517 0-22.025-4.509-43.456-13.15-63.584 24.073-35.8 30.684-79.747 18.064-121.434zm-393.759 50.781c-18.651 15.32-33.7 32.838-44.82 51.853-18.097-32.1-17.26-63.439-13.671-83.425 18.198 4.012 41.062 12.19 61.995 28.762a218.872 218.872 0 0 0-3.504 2.81zm18.604-13.707c-24.215-20.496-51.059-30.433-72.325-35.23 2.616-4.64 7.352-7.852 12.837-8.494 16.527-1.931 56.476-2.822 92.884 25.374-11.694 5.257-22.865 11.387-33.396 18.35zm250.766-18.35c36.407-28.192 76.355-27.303 92.883-25.372 5.485.641 10.221 3.853 12.837 8.494-21.264 4.795-48.108 14.732-72.325 35.228-10.53-6.963-21.7-13.093-33.395-18.35zm96.819 83.909c-11.12-19.014-26.168-36.532-44.82-51.853a220.29 220.29 0 0 0-3.506-2.81c20.936-16.573 43.8-24.752 61.996-28.762 3.59 19.987 4.427 51.327-13.67 83.425z"/><path d="M280.907 2326.246c0-26.574-18.35-48.195-40.907-48.195s-40.907 21.62-40.907 48.195c0 26.574 18.35 48.191 40.907 48.191s40.907-21.618 40.907-48.191zm-63.814 0c0-16.656 10.277-30.206 22.907-30.206 12.631 0 22.907 13.55 22.907 30.206 0 16.654-10.276 30.203-22.907 30.203-12.631.001-22.907-13.549-22.907-30.203zm-61.51-15.294c4.97 0 9-4.026 9-8.994v-13.903c0-4.968-4.03-8.994-9-8.994s-9 4.026-9 8.994v13.903c0 4.968 4.029 8.994 9 8.994zm177.835-8.994v-13.903c0-4.968-4.03-8.994-9-8.994s-9 4.026-9 8.994v13.903c0 4.968 4.03 8.994 9 8.994s9-4.026 9-8.994zm-193.802 51.876c-1.267-4.803-6.19-7.67-10.996-6.404-12.376 3.26-35.733 14.9-44.805 21.544-4.009 2.935-4.878 8.565-1.94 12.57a8.987 8.987 0 0 0 7.267 3.68c1.847 0 3.71-.568 5.312-1.74 7.448-5.454 28.748-16.025 38.754-18.662 4.806-1.265 7.676-6.184 6.408-10.988zm.986-349.85c.57 0 1.148-.055 1.728-.168l17.202-3.344c4.879-.949 8.065-5.671 7.116-10.547-.95-4.876-5.678-8.061-10.553-7.112l-17.203 3.345c-4.88.949-8.066 5.671-7.116 10.547.837 4.296 4.604 7.278 8.826 7.278zm199.782 349.85c-1.268 4.804 1.603 9.723 6.409 10.99 10.008 2.635 31.308 13.207 38.754 18.66a8.963 8.963 0 0 0 5.312 1.74 8.995 8.995 0 0 0 7.267-3.679 8.99 8.99 0 0 0-1.94-12.57c-9.072-6.644-32.429-18.285-44.804-21.544-4.809-1.265-9.731 1.601-10.998 6.403zm-218.698-18.129c4.922.638 9.446-2.824 10.094-7.748.647-4.925-2.824-9.442-7.753-10.088-12.692-1.66-38.751.269-49.687 2.98-4.824 1.197-7.764 6.074-6.568 10.896 1.017 4.093 4.69 6.83 8.728 6.83a9.01 9.01 0 0 0 2.176-.268c8.98-2.225 32.742-3.947 43.01-2.602z"/></g><g><path d="M713.565 3066.88c8.66 2.298 27.784 11.858 34.213 16.603a8.956 8.956 0 0 0 5.334 1.758 8.992 8.992 0 0 0 5.349-16.229c-8.153-6.018-29.15-16.562-40.28-19.516a8.994 8.994 0 1 0-4.616 17.383zm-19.682-48.366a8.993 8.993 0 0 0 8.994-8.993v-12.491a8.992 8.992 0 0 0-8.994-8.993 8.992 8.992 0 0 0-8.995 8.993v12.49a8.994 8.994 0 0 0 8.995 8.994zm30.353 22.23c8.881-1.174 30.204.379 37.956 2.318a9.054 9.054 0 0 0 2.189.27 9 9 0 0 0 8.72-6.814 8.993 8.993 0 0 0-6.545-10.907c-9.828-2.457-33.256-4.205-44.679-2.699-4.923.651-8.388 5.172-7.737 10.095.65 4.924 5.174 8.388 10.096 7.737zm128.115 260.459h45.365a8.993 8.993 0 1 0 0-17.986h-45.365a8.994 8.994 0 1 0 0 17.986zm-91.286-122.685a8.993 8.993 0 0 0-8.994 8.993v77.09c0 4.969 4.026 8.994 8.994 8.994s8.994-4.025 8.994-8.993v-77.091a8.994 8.994 0 0 0-8.994-8.993zm151.815 133.95h-75.694c-4.969 0-8.995 4.026-8.995 8.994s4.026 8.993 8.995 8.993h75.694a8.992 8.992 0 0 0 8.994-8.993 8.992 8.992 0 0 0-8.994-8.994zm-151.815-17.97a8.992 8.992 0 0 0-8.994 8.993v17.97c0 4.969 4.026 8.994 8.994 8.994s8.994-4.025 8.994-8.993v-17.971a8.994 8.994 0 0 0-8.994-8.993z"/><path d="M925.392 3106.066h-.602c-27.214-34.841-82.294-40.046-123.327-29.733-1.405.354-2.777.727-4.132 1.112 4.937-13.321 7.434-27.812 7.434-43.33 0-19.75-3.983-38.97-11.614-57.035 21.393-32.31 27.237-71.889 15.956-109.44a32.143 32.143 0 0 0-27.034-22.682c-37.383-4.404-74.202 7.184-101.921 31.873-24.903-8.806-51.91-13.44-79.757-13.44-27.847 0-54.852 4.634-79.755 13.44-27.717-24.69-64.528-36.28-101.922-31.874a32.135 32.135 0 0 0-27.035 22.683c-11.281 37.55-5.437 77.128 15.956 109.44-7.63 18.064-11.612 37.284-11.612 57.034 0 31.732 10.291 58.908 30.592 80.777 14.377 15.489 33.514 27.977 57.021 37.3a110.289 110.289 0 0 0-2.658 7.97c-1.167.429-2.32.917-3.448 1.478-8.106 4.022-14.16 10.959-17.046 19.533-2.888 8.574-2.263 17.759 1.76 25.864 7.011 14.125 16.164 25 26.388 33.188.38.745.747 1.497 1.144 2.233-4.753.858-9.605.22-15.136-1.885-46.767-17.815-78.972-15.292-110.956 9.7-.105.081-.21.164-.311.25a157.815 157.815 0 0 0-9.485 8.099c-9.947 9.174-10.575 24.731-1.4 34.678a24.616 24.616 0 0 0 18.045 7.903c4.983 0 9.774-1.523 13.83-4.299v46.428c0 15.786 12.846 28.628 28.633 28.628h512.392c19.082 0 34.608-15.523 34.608-34.604V3140.67c-.001-19.08-15.526-34.605-34.608-34.605zM374.978 3281.48a6.535 6.535 0 0 1-4.442 1.737 6.487 6.487 0 0 1-4.822-2.11 6.505 6.505 0 0 1-1.73-4.71 6.51 6.51 0 0 1 2.105-4.554 153.085 153.085 0 0 1 4.02-3.567c3.255 2.447 6.29 5.946 8.578 9.89a158.855 158.855 0 0 0-3.71 3.314zm430.87-187.702c30.9-7.77 69.168-5.187 93.181 12.288H777.48c6.022-4.546 15.583-9.074 28.37-12.288zm-22.29-135.634c-9.875-16.59-23.053-31.888-39.276-45.318-.748-.619-1.51-1.223-2.266-1.831 17.9-14.014 37.299-21.13 52.982-24.728 2.97 17.528 3.422 44.314-11.44 71.877zm-3.592-95.323c4.16.49 7.803 2.777 10.074 6.13-18.701 4.403-41.955 13.28-63.057 31.084a210.604 210.604 0 0 0-27.907-15.518c31.853-24.182 66.466-23.394 80.89-21.696zm-359.143 0c14.42-1.7 49.04-2.486 80.888 21.695a210.378 210.378 0 0 0-27.905 15.518c-21.102-17.802-44.355-26.679-63.055-31.084a14.156 14.156 0 0 1 10.072-6.129zm-15.03 23.445c15.683 3.598 35.084 10.716 52.982 24.729-.758.608-1.52 1.212-2.267 1.832-16.222 13.429-29.4 28.728-39.276 45.318-14.862-27.564-14.41-54.35-11.439-71.88zm8.22 147.85c0-84.218 83.61-152.738 186.38-152.738 102.772 0 186.382 68.519 186.382 152.739 0 20.251-4.897 38.345-14.533 53.83-4.6 2.793-8.494 5.852-11.595 9.126-7.864-7.442-20.435-13.73-37.093-18.386-49.858-13.932-118.356-8.78-150.488 27.382h-1.94c-19.081 0-34.607 15.523-34.607 34.604v50.085c-5.24-2.537-10.143-6.897-13.583-13.83-4.023-8.105-10.96-14.16-19.536-17.046a34.816 34.816 0 0 0-3.085-.877c.107-.288.222-.571.331-.858 1.26.388 2.512.781 3.794 1.153a9.031 9.031 0 0 0 2.507.357 8.995 8.995 0 0 0 2.498-17.634c-43.536-12.618-95.431-41.576-95.431-107.906zM413 3353.975c-5.869 0-10.644-4.774-10.644-10.642v-55.49c0-2.41.771-4.298 1.633-5.66 8.798-4.408 18.715-5.493 33.427-2.012v73.804zm65.006 0h-22.6v-68.185c.586.218 1.16.425 1.76.654 7.014 2.672 13.993 4.38 20.84 5.14zm8.994-79.946c-.08 0-.158.01-.238.012-.264.005-.526.015-.79.015-7.16 0-14.697-1.488-22.402-4.422-4.956-1.888-9.595-3.46-13.984-4.766a8.77 8.77 0 0 0-1.344-.4c-23.984-6.9-39.986-5.16-54.277 2.727-.23.114-.456.24-.678.373-2.367-3.773-5.184-7.227-8.3-10.187 23.451-14.075 47.612-13.574 83.254.002 11.174 4.256 21.653 4.539 31.822.84a119.057 119.057 0 0 0 9.136 10.444c-7.276 3.439-14.581 5.204-22.096 5.367-.034 0-.07-.005-.103-.005zm8.994 79.945v-62.652c9.482-1.358 18.658-4.669 27.743-10.02a124.246 124.246 0 0 0 12.781 8.3v47.755a34.38 34.38 0 0 0 4.263 16.617zm27.896-96.065a102.346 102.346 0 0 0 12.628 2.532v7.902a104.679 104.679 0 0 1-12.628-10.434zm-45.531-58.866a15.788 15.788 0 0 1-.825-12.128 15.783 15.783 0 0 1 7.995-9.163 15.813 15.813 0 0 1 7.045-1.664c1.707 0 3.42.278 5.084.838a15.784 15.784 0 0 1 9.162 7.993c8.706 17.548 23.434 24.758 36.932 26.344a8.99 8.99 0 0 0 1.698.172c7.37.616 14.275-.411 19.498-2.302 8.241-2.985 17.369 1.296 20.351 9.525 2.981 8.237-1.293 17.363-9.529 20.345-5.266 1.906-10.891 3.216-16.72 3.894-25.695 2.99-62.248-6.698-80.691-43.854zm92.769 154.932c-9.164 0-16.619-7.455-16.619-16.617v-76.074c2.26-.1 4.476-.268 6.621-.517 7.209-.84 14.194-2.47 20.763-4.85 17.563-6.356 26.678-25.815 20.32-43.38-6.355-17.552-25.818-26.666-43.385-20.316-1.288.466-2.748.84-4.322 1.1v-52.647c0-9.162 7.455-16.616 16.618-16.616H714.07v229.918H571.127zm151.941-247.908l-.013.001H600.757c32.464-20.446 85.141-19.231 117.953-10.06 10.72 2.996 18.743 6.565 24.253 10.059h-19.895zm218.943 231.289c0 9.163-7.456 16.617-16.62 16.617H808.058v-34.86a8.993 8.993 0 0 0-8.995-8.993 8.993 8.993 0 0 0-8.994 8.994v34.859h-58.005v-229.919H790.067v153.859c0 4.968 4.026 8.993 8.994 8.993s8.994-4.025 8.994-8.993v-153.859h112.17l.018.002.016-.002h5.132c9.164 0 16.618 7.455 16.618 16.618v196.684z"/><path d="M513.019 3040.744c4.923.652 9.445-2.813 10.096-7.737.651-4.923-2.815-9.444-7.737-10.095-11.418-1.508-34.85.242-44.68 2.7a8.993 8.993 0 0 0-6.544 10.906 9 9 0 0 0 8.72 6.815c.723 0 1.457-.088 2.188-.271 7.75-1.938 29.078-3.494 37.957-2.318zm30.352-22.23a8.993 8.993 0 0 0 8.994-8.993v-12.491a8.992 8.992 0 0 0-8.994-8.993 8.992 8.992 0 0 0-8.994 8.993v12.49a8.994 8.994 0 0 0 8.994 8.994zm75.257 9.591a35.305 35.305 0 0 0 26.62-12.122c3.265-3.744 2.872-9.425-.873-12.688a8.992 8.992 0 0 0-12.689.873 17.328 17.328 0 0 1-13.06 5.952c-5.002 0-9.763-2.17-13.06-5.952a8.993 8.993 0 0 0-12.689-.873c-3.745 3.263-4.136 8.944-.873 12.688a35.314 35.314 0 0 0 26.624 12.122zm46.082 255.126h-60.842c-8.67 0-15.722 7.05-15.722 15.72v21.078c0 8.668 7.053 15.72 15.722 15.72h60.842c8.668 0 15.72-7.052 15.72-15.72v-21.078c.002-8.668-7.05-15.72-15.72-15.72zm-2.266 34.533h-56.31v-16.547h56.31zm-132.371-261.885c-1.275-4.8-6.198-7.656-11.002-6.384-11.126 2.955-32.122 13.5-40.278 19.516a8.99 8.99 0 0 0-1.896 12.575 8.98 8.98 0 0 0 7.243 3.654 8.958 8.958 0 0 0 5.335-1.758c6.43-4.745 25.555-14.306 34.212-16.604a8.992 8.992 0 0 0 6.386-11z"/></g><g><path d="M303.013 64.67c-12.75 0-23.123 10.386-23.123 23.15 0 12.766 10.373 23.15 23.123 23.15 12.752 0 23.125-10.384 23.125-23.15 0-12.765-10.374-23.15-23.125-23.15zm0 28.288c-2.829 0-5.13-2.305-5.13-5.138s2.301-5.138 5.13-5.138 5.133 2.306 5.133 5.138a5.142 5.142 0 0 1-5.133 5.138zM192.767 64.67c-12.751 0-23.124 10.386-23.124 23.15 0 12.766 10.373 23.15 23.124 23.15s23.124-10.384 23.124-23.15c.001-12.765-10.374-23.15-23.124-23.15zm0 28.288c-2.83 0-5.133-2.305-5.133-5.138s2.303-5.138 5.133-5.138a5.142 5.142 0 0 1 5.132 5.138 5.14 5.14 0 0 1-5.132 5.138zm31.998-5.138c0 12.766 10.373 23.15 23.124 23.15s23.124-10.384 23.124-23.15c0-12.765-10.373-23.15-23.124-23.15-12.749 0-23.124 10.385-23.124 23.15zm28.259 0c0 2.833-2.303 5.138-5.133 5.138s-5.132-2.305-5.132-5.138 2.303-5.138 5.132-5.138 5.133 2.306 5.133 5.138z"/><path d="M194.179 159.908c.054.003.265.074.508.33 9.288 9.731 21.8 15.09 35.227 15.09 15.901 0 30.813-7.787 39.937-20.842 3.726.55 7.513.828 11.258.828 21.056 0 40.758-8.304 55.477-23.38 14.715-15.073 22.556-34.994 22.073-56.093a76.538 76.538 0 0 0-7.436-31.306c-2.135-4.491-7.502-6.402-11.988-4.263-4.486 2.137-6.392 7.51-4.258 12.002a58.637 58.637 0 0 1 5.695 23.98c.37 16.21-5.65 31.515-16.952 43.091-11.306 11.58-26.44 17.958-42.61 17.958a59.42 59.42 0 0 1-8.733-.65c-6.742-1.002-13.333 1.828-17.19 7.396-5.752 8.308-15.2 13.269-25.272 13.269-8.468 0-16.358-3.382-22.216-9.521-3.235-3.39-7.509-5.463-12.033-5.838-23.971-1.988-42.749-22.427-42.749-46.534 0-24.422 19.045-44.882 43.356-46.58 4.023-.282 7.72-2.51 9.886-5.96 4.79-7.622 13.007-12.173 21.981-12.173 2.15 0 4.294.268 6.37.795 4.096 1.039 8.377.232 11.756-2.214 10.203-7.384 22.244-11.281 34.843-11.281h.275a59.17 59.17 0 0 1 29.13 7.85 8.99 8.99 0 0 0 12.28-3.333c2.47-4.316.98-9.819-3.33-12.292A77.179 77.179 0 0 0 281.465 0h-.357c-15.8 0-30.93 4.708-43.897 13.646a43.997 43.997 0 0 0-9.071-.948c-14.32 0-27.497 6.835-35.75 18.414-32.432 3.605-57.466 31.356-57.466 64.312 0 16.343 6.103 31.946 17.185 43.934 11.017 11.915 25.957 19.213 42.07 20.55zm187.054 146.537c-9.317-2.333-31.533-3.993-42.351-2.561-4.925.652-8.391 5.177-7.74 10.108.651 4.931 5.188 8.396 10.097 7.749 8.337-1.105 28.353.356 35.63 2.178a8.993 8.993 0 0 0 2.189.271 9.003 9.003 0 0 0 8.72-6.824c1.205-4.825-1.723-9.714-6.545-10.921zm-68.7-35.515c-4.97 0-8.997 4.032-8.997 9.005v11.802c0 4.973 4.027 9.005 8.996 9.005s8.996-4.032 8.996-9.005v-11.802c0-4.973-4.028-9.005-8.996-9.005zm61.241 76.604c-7.727-5.71-27.63-15.718-38.18-18.522a8.995 8.995 0 0 0-11.005 6.393c-1.275 4.808 1.585 9.74 6.386 11.016 8.126 2.16 26.079 11.146 32.113 15.606a8.95 8.95 0 0 0 5.335 1.76 8.98 8.98 0 0 0 7.245-3.658c2.953-4.002 2.105-9.64-1.894-12.595z"/><path d="M427.447 341.83c0-18.824-3.874-36.903-10.969-53.72 20.21-30.634 25.721-68.132 15.045-103.711a30.852 30.852 0 0 0-25.94-21.79c-35.367-4.169-70.182 6.777-96.427 30.105-23.093-8.172-48.463-12.694-75.072-12.694-26.23 0-51.673 4.351-75.149 12.626-26.237-23.284-61.023-34.21-96.35-30.038a30.843 30.843 0 0 0-25.939 21.79c-10.663 35.536-5.18 72.987 14.97 103.598-7.158 17.056-10.894 35.194-10.894 53.832 0 34.027 12.36 62.38 36.737 84.27 12.456 11.186 27.779 20.405 45.784 27.606-.629 1.699-1.211 3.412-1.75 5.14-7.439 3.372-13.63 9.524-16.84 17.718-6.223 15.88.945 33.757 16.017 41.094 2.827 10.05 7.145 19.588 12.767 28.369-12.642 7.02-27.557 6.167-32.413 5.646-26.833-2.886-44.547-17.956-51.074-33.951a8.976 8.976 0 0 0-.473-1.199c-1.093-2.938-1.814-5.897-2.139-8.809-.7-6.293-3.81-11.938-8.757-15.894-4.944-3.953-11.122-5.744-17.39-5.033-12.97 1.447-22.347 13.19-20.903 26.176 2.625 23.55 14.414 44.472 34.093 60.504 17.058 13.896 38.929 22.891 61.584 25.328 4.144.445 8.312.672 12.388.672 16.635 0 32.624-3.803 46.239-10.996a85.113 85.113 0 0 0 12.95-8.442 118.95 118.95 0 0 0 7.538 4.481c5.839 8.445 15.56 14.007 26.557 14.06.252.009.48.006.722 0 33.738 0 52.22 3.133 63.794 10.815a32.297 32.297 0 0 0 17.919 5.417h.005a32.413 32.413 0 0 0 27.087-14.547 32.56 32.56 0 0 0 4.477-10.168c11.828.645 25.011 5.435 31.38 11.913 6.154 6.262 14.373 9.71 23.149 9.71 8.573 0 16.663-3.316 22.776-9.337 9.503-9.361 12.017-23.187 7.5-34.914 3.001-2.635 5.536-5.8 7.399-9.374 8.277-15.894 2.097-35.57-13.777-43.859-26.423-13.795-33.897-22.08-46.284-51.607a103.366 103.366 0 0 0-2.866-8.94c53.458-21.45 82.53-60.459 82.53-111.847zm-20.626-72.66c-9.827-16.294-22.85-31.013-38.375-43.584 16.508-12.822 34.338-19.433 48.867-22.827 2.684 16.35 2.965 40.998-10.492 66.41zm-3.342-88.674a12.85 12.85 0 0 1 8.712 4.968c-17.519 4.218-39.117 12.591-58.775 29.129-7.963-5.242-16.436-9.962-25.333-14.122 29.755-22.296 61.94-21.558 75.396-19.975zm-338.79.002c13.444-1.587 45.558-2.32 75.278 19.887a199.048 199.048 0 0 0-25.306 14.132c-19.633-16.486-41.192-24.84-58.685-29.052a12.849 12.849 0 0 1 8.712-4.967zm-13.83 22.26c14.5 3.39 32.29 9.98 48.772 22.753-.55.446-1.105.883-1.65 1.334-15.1 12.515-27.422 26.743-36.716 42.167-13.373-25.356-13.089-49.936-10.407-66.253zm80.666 299.884c-.07-.028-.144-.053-.216-.08-.572-.205-1.145-.404-1.714-.628-7.434-2.92-11.109-11.35-8.192-18.793 2.237-5.71 7.714-9.204 13.5-9.204 1.756 0 3.54.323 5.273 1.003 13.474 5.29 25.435.351 32.135-6.038a29.74 29.74 0 0 0 5.138-6.544c.132-.213.254-.431.37-.656l.054-.102c.011-.023.024-.045.036-.068 3.018-5.622 5.042-13.84 1.452-24.51-2.55-7.578 1.534-15.817 9.101-18.369 7.572-2.554 15.802 1.537 18.35 9.113 7.588 22.554 2.023 46.364-14.525 62.137-11.026 10.51-25.39 16.299-40.443 16.3-6.88-.001-13.703-1.207-20.319-3.561zm-113.352 8.323a5.693 5.693 0 0 1 5.025-6.28 5.602 5.602 0 0 1 4.157 1.207 5.653 5.653 0 0 1 2.104 3.814c.22 1.98.568 3.95 1.015 5.91-3.788 1.42-7.583 2.277-11.052 2.776a68.765 68.765 0 0 1-1.249-7.427zm128.022 61.574c-13.801 7.292-30.794 10.23-48.306 8.345-19.237-2.069-37.758-9.665-52.151-21.39-8.56-6.973-15.252-15.047-19.957-23.926 3.647-.715 7.5-1.75 11.39-3.236 3.373 5.754 7.74 11.165 12.995 16.006 12.849 11.835 29.77 19.182 48.937 21.242 8.46.91 28.194 1.523 45.354-9.135 2.571 2.85 5.299 5.58 8.176 8.177-2.072 1.413-4.21 2.74-6.438 3.917zm149.974 17.76a14.466 14.466 0 0 1-12.092 6.489h-.002a14.39 14.39 0 0 1-7.978-2.418c-14.978-9.94-35.653-13.815-73.764-13.815l-.285.004a8.749 8.749 0 0 0-.252-.004c-7.977 0-14.475-6.498-14.483-14.485a14.414 14.414 0 0 1 4.232-10.255 14.377 14.377 0 0 1 10.229-4.257l.62-.001c36.986 0 66.394 3.17 89.708 18.644a14.403 14.403 0 0 1 6.192 9.205c.13.64.2 1.283.243 1.923 0 .047.006.095.007.141a14.37 14.37 0 0 1-2.375 8.829zm84.161-.769a14.395 14.395 0 0 1-10.158 4.164 14.37 14.37 0 0 1-10.324-4.33c-9.905-10.078-28.1-16.872-44.938-17.338-.241-.73-.502-1.45-.792-2.156 8.3-7.241 15.347-15.466 21.002-24.415 17.932 4.01 34.58 12.587 45.375 23.572 5.601 5.697 5.527 14.897-.165 20.503zm-29.958-85.545c8.528 10.31 19.13 17.724 35.377 26.207 7.08 3.697 9.837 12.473 6.146 19.56a14.462 14.462 0 0 1-2.234 3.165c-12.098-10.905-28.271-19.286-46.038-23.935 3.276-8 5.547-16.381 6.749-24.997zm-20.437-63.922l-.024.008a214.199 214.199 0 0 1-14.925 4.555c-4.801 1.279-7.657 6.212-6.38 11.018 1.28 4.807 6.209 7.665 11.008 6.388 2.825-.752 5.579-1.56 8.299-2.39 3.61 9.61 5.467 19.666 5.467 30.004 0 14.59-3.715 28.704-10.637 41.357-.07.125-.144.245-.207.373-4.982 9.002-11.594 17.254-19.652 24.402-.278-.196-.554-.397-.84-.587-27.063-17.963-59.409-21.644-99.65-21.644l-.628.001c-8.674.009-16.826 3.399-22.955 9.544-4.59 4.604-7.632 10.341-8.866 16.58-12.447-9.735-22.123-22.147-28.142-36.124 3.326.435 6.675.67 10.039.67 19.693 0 38.461-7.554 52.849-21.268 9.174-8.745 15.769-19.35 19.59-30.887 3.286.078 6.564.13 9.802.13 14.517 0 28.668-.746 42.06-2.215 4.938-.543 8.503-4.99 7.962-9.933-.54-4.945-4.977-8.513-9.923-7.972-12.743 1.398-26.234 2.108-40.1 2.108-2.044 0-4.113-.032-6.18-.065.838-10.542-.456-21.434-4.044-32.097-5.714-16.986-24.173-26.152-41.142-20.435-16.97 5.722-26.126 24.198-20.412 41.187.508 1.507.79 2.927.89 4.274-8.808-1.942-17.1-4.26-24.871-6.941-.076-.029-.153-.053-.228-.08-19.64-6.802-35.936-15.934-48.625-27.33-20.411-18.328-30.76-42.17-30.76-70.86 0-79.29 78.671-143.798 175.37-143.798 96.7 0 175.372 64.507 175.372 143.797.003 56.86-40.339 84.652-79.517 98.23z"/><path d="M141.793 321.74c4.914.649 9.445-2.817 10.097-7.748.65-4.93-2.816-9.457-7.74-10.108-10.824-1.433-33.032.228-42.35 2.561-4.821 1.206-7.75 6.096-6.546 10.921a9.003 9.003 0 0 0 8.72 6.824c.723 0 1.457-.088 2.189-.271 7.277-1.822 27.292-3.284 35.63-2.178zm5.648 7.272c-10.55 2.805-30.454 12.813-38.181 18.522-3.998 2.954-4.846 8.593-1.895 12.594a8.98 8.98 0 0 0 7.244 3.658 8.95 8.95 0 0 0 5.335-1.76c6.035-4.46 23.987-13.446 32.113-15.606 4.802-1.276 7.661-6.208 6.386-11.016a8.998 8.998 0 0 0-11.002-6.392zm112.798-40.393h-37.446c-4.97 0-8.996 4.033-8.996 9.006 0 4.974 4.027 9.006 8.996 9.006h37.446c4.969 0 8.995-4.032 8.995-9.006 0-4.973-4.026-9.006-8.995-9.006zM170.5 270.93c-4.969 0-8.995 4.033-8.995 9.006v11.802c0 4.973 4.026 9.005 8.995 9.005s8.996-4.032 8.996-9.005v-11.802c0-4.973-4.026-9.005-8.996-9.005z"/></g></g></svg>