<svg xmlns="http://www.w3.org/2000/svg" width="511" height="511" viewBox="0 0 511 511"><g fill="none"><circle cx="255.502" cy="255.501" r="255.501" fill="#5037F6"/><path fill="#442ED2" d="M361.094 488.225c77.308-35.13 134.018-107.647 147.057-194.463l-74.997-74.996-6.705 13.652-105.26-105.257-75.243 65.458-26.58-26.58-134.198 21.665 64.234 64.235-12.472 6.353 33.298 33.297-3.617 2.158 194.483 194.478z"/><path fill="#F66F86" d="M342.185 214.63c3.422-13.102 16.818-20.947 29.921-17.523 13.103 3.424 20.95 16.818 17.526 29.92 3.422-13.102 16.818-20.947 29.922-17.523 13.103 3.424 20.949 16.818 17.525 29.92-5.927 22.684-60.462 37.42-60.462 37.42s-40.692-38.251-34.432-62.213z"/><path fill="#FCDFD1" d="M232.502 314.483v-21.61H193.53v21.61c0 1.723-1.4 3.123-3.123 3.123h-26.856v74.573h98.931v-74.573h-26.855a3.123 3.123 0 0 1-3.125-3.123z"/><path fill="#F4C1A7" d="M262.48 317.606h-26.855a3.124 3.124 0 0 1-3.123-3.123v-21.61h-20.378v99.305h50.356v-74.572z"/><circle cx="148.243" cy="247.603" r="15.571" fill="#FCDFD1"/><circle cx="274.48" cy="247.603" r="15.571" fill="#FCDFD1"/><path fill="#FCDFD1" d="M213.11 312.453h-3.51c-32.463 0-58.779-26.316-58.779-58.78v-53.667c0-32.463 26.318-58.779 58.78-58.779h3.51c32.463 0 58.779 26.316 58.779 58.78v53.667c0 32.463-26.316 58.779-58.78 58.779z"/><path fill="#F4C1A7" d="M213.11 141.227h-.987v171.227h.988c32.463 0 58.779-26.316 58.779-58.78v-53.667c0-32.464-26.316-58.78-58.78-58.78z"/><circle cx="182.809" cy="240.67" r="6.053" fill="#222"/><circle cx="239.896" cy="240.67" r="6.053" fill="#222"/><path fill="#F66F86" d="M266.728 317.606h-20.736c0 18.212-32.978 35.899-32.978 35.899s-32.978-17.686-32.978-35.9h-20.734c-24.973 0-45.218 20.246-45.218 45.218v105.488c40.496 26.965 89.117 42.69 141.418 42.69 19.397 0 38.285-2.172 56.444-6.269V362.823c0-24.973-20.244-45.217-45.218-45.217z"/><path fill="#CC5C6F" d="M266.728 317.606h-20.736c0 18.212-32.978 35.899-32.978 35.899s-.408-.221-1.1-.614v154.362c14.168 2.439 28.721 3.75 43.587 3.75 19.397 0 38.285-2.172 56.444-6.269V362.825c0-24.975-20.243-45.22-45.217-45.22z"/><path fill="#F66F86" d="M211.354 290.29c-10.906 0-19.78-8.873-19.78-19.78a3.348 3.348 0 1 1 6.698 0c0 7.215 5.87 13.084 13.083 13.084s13.084-5.87 13.084-13.083a3.348 3.348 0 1 1 6.697 0c-.002 10.906-8.875 19.779-19.782 19.779zM165.368 180.292s-2.953-37.47-60.527-53.134l-19.673 60.545 80.2-7.41z"/><g fill="#F66F86"><path d="M260.664 180.292s2.952-37.47 60.526-53.134l19.673 60.545-80.2-7.41z"/><path d="M266.126 227.018v20.576h10.952V197.705a63.498 63.498 0 0 0-11.563-36.614c-11.543-16.443-30.638-27.202-52.255-27.202h-3.81c-35.246 0-63.819 28.571-63.819 63.818v49.887H155v-20.576h111.126z"/></g><path fill="#CC5C6F" d="M265.515 161.091c-11.543-16.443-30.638-27.202-52.255-27.202h-1.345v93.13h54.21v20.576h10.952v-49.888a63.483 63.483 0 0 0-11.562-36.616z"/><path fill="#FFE67F" d="M337.453 393.535l-18.418 3.791a19.124 19.124 0 0 0-15.216 17.291l-7.029 93.047a253.95 253.95 0 0 0 96.58-37.015l-35.11-67.234a19.125 19.125 0 0 0-20.807-9.88z"/><path fill="#E6CF73" d="M358.26 403.413a19.121 19.121 0 0 0-20.807-9.878l-9.83 2.023 20.212 98.237a254.62 254.62 0 0 0 45.536-23.147l-35.112-67.235z"/><path fill="#FFE67F" d="M340.662 334.281a53.203 53.203 0 0 0-25.182-.886 53.192 53.192 0 0 0-22.787 10.759l-32.255-13.07 13.464 65.432c5.948 28.91 34.208 47.523 63.12 41.573 28.912-5.949 47.526-34.209 41.579-63.117l-13.464-65.433-24.475 24.742z"/><path fill="#E6CF73" d="M340.662 334.281a53.203 53.203 0 0 0-25.182-.886c-.21.043-.411.102-.62.148L336.394 438.2c.209-.04.416-.069.627-.112 28.912-5.949 47.526-34.209 41.579-63.117l-13.464-65.433-24.474 24.743z"/><circle cx="304.107" cy="397.222" r="4.345" fill="#222"/><circle cx="351.13" cy="387.553" r="4.345" fill="#222"/><path fill="#222" d="M346.898 411.685a6.797 6.797 0 0 1-5.283 8.02c-2.368.486-4.758-.321-6.372-2.095l-2.66-12.93c1.783-1.691 3.992-4.334 3.504-6.713-.799-3.879-3.801-2.545-7.68-1.747-3.878.799-7.163.759-6.365 4.637.49 2.38 3.563 3.936 5.869 4.785l2.66 12.93c-.783 2.267-2.66 3.952-5.027 4.439a6.799 6.799 0 0 1-8.021-5.282l-4.675.962c1.285 6.246 7.41 10.28 13.656 8.996a11.475 11.475 0 0 0 7.347-4.999 11.483 11.483 0 0 0 8.723 1.69c6.246-1.285 10.28-7.41 8.995-13.656l-4.67.963z"/><path fill="#CCB866" d="M330.838 368.964l-7.524-36.564c-2.596.144-5.21.456-7.834.996a53.511 53.511 0 0 0-7.591 2.178l7.524 36.564a7.874 7.874 0 0 0 15.425-3.174zM337.569 359.054a5.487 5.487 0 0 0 4.268-6.481l-3.904-18.974a53.087 53.087 0 0 0-11.47-1.284l4.623 22.468a5.488 5.488 0 0 0 6.483 4.27zM294.932 342.447l3.904 18.974a5.488 5.488 0 0 0 10.75-2.213l-4.623-22.468a53.183 53.183 0 0 0-10.031 5.707z"/></g></svg>