<svg xmlns="http://www.w3.org/2000/svg" width="37" height="32" viewBox="0 0 37 32"><path d="M24.688 16.799a8.998 8.998 0 0 0-15.15 0l-4.555 7.105a5.245 5.245 0 0 0 .428 6.237 5.245 5.245 0 0 0 6.096 1.392h.002a13.925 13.925 0 0 1 11.21 0 5.243 5.243 0 0 0 6.524-7.629l-4.555-7.105zM5.87 16.114c2.093-.805 3.023-3.45 2.078-5.907C7 7.75 4.538 6.41 2.446 7.217c-2.092.804-3.02 3.45-2.077 5.906.947 2.456 3.41 3.796 5.5 2.99zm8.223-4.45c2.727 0 4.94-2.596 4.94-5.798 0-3.203-2.213-5.8-4.94-5.8-2.726 0-4.938 2.597-4.938 5.8 0 3.202 2.212 5.799 4.938 5.799zm9.209 1.724c2.588.86 5.506-.907 6.516-3.945 1.011-3.04-.27-6.202-2.856-7.061-2.588-.86-5.507.907-6.516 3.946-1.01 3.039.27 6.2 2.856 7.06zm11.73-.872c-1.803-1.332-4.534-.699-6.1 1.417-1.565 2.117-1.373 4.914.427 6.247 1.8 1.333 4.533.7 6.1-1.417 1.566-2.116 1.373-4.914-.427-6.247z" fill="white"/></svg>