<svg xmlns="http://www.w3.org/2000/svg" viewBox="0 0 393 241"><path fill="currentColor" d="M56.946 39.888h16.956v30.888l30.132-30.888h21.168L91.938 72.18l36.18 44.82h-21.276L79.626 82.764l-5.724 6.156V117H56.946V39.888zm107.536 78.84c-5.976 0-11.304-1.026-15.984-3.078-4.68-2.052-8.64-4.878-11.88-8.478-3.24-3.6-5.724-7.83-7.452-12.69-1.728-4.86-2.592-10.098-2.592-15.714 0-5.688.864-11.016 2.592-15.984 1.728-4.968 4.212-9.288 7.452-12.96 3.24-3.672 7.2-6.552 11.88-8.64 4.68-2.088 10.008-3.132 15.984-3.132 5.904 0 11.214 1.044 15.93 3.132 4.716 2.088 8.694 4.968 11.934 8.64 3.24 3.672 5.724 7.992 7.452 12.96 1.728 4.968 2.592 10.296 2.592 15.984 0 5.616-.864 10.854-2.592 15.714-1.728 4.86-4.212 9.09-7.452 12.69-3.24 3.6-7.218 6.426-11.934 8.478-4.716 2.052-10.026 3.078-15.93 3.078zm0-14.148c3.816 0 7.056-.738 9.72-2.214 2.664-1.476 4.824-3.438 6.48-5.886 1.656-2.448 2.862-5.202 3.618-8.262a39.254 39.254 0 0 0 1.134-9.45c0-3.384-.378-6.66-1.134-9.828-.756-3.168-1.962-5.994-3.618-8.478s-3.816-4.464-6.48-5.94c-2.664-1.476-5.904-2.214-9.72-2.214-3.816 0-7.056.738-9.72 2.214-2.664 1.476-4.824 3.456-6.48 5.94-1.656 2.484-2.862 5.31-3.618 8.478a42.196 42.196 0 0 0-1.134 9.828c0 3.24.378 6.39 1.134 9.45.756 3.06 1.962 5.814 3.618 8.262 1.656 2.448 3.816 4.41 6.48 5.886 2.664 1.476 5.904 2.214 9.72 2.214zm61.528-50.436h-23.112V39.888h63.18v14.256h-23.112V117H226.01V54.144zm78.484 64.584c-5.976 0-11.304-1.026-15.984-3.078-4.68-2.052-8.64-4.878-11.88-8.478-3.24-3.6-5.724-7.83-7.452-12.69-1.728-4.86-2.592-10.098-2.592-15.714 0-5.688.864-11.016 2.592-15.984 1.728-4.968 4.212-9.288 7.452-12.96 3.24-3.672 7.2-6.552 11.88-8.64 4.68-2.088 10.008-3.132 15.984-3.132 5.904 0 11.214 1.044 15.93 3.132 4.716 2.088 8.694 4.968 11.934 8.64 3.24 3.672 5.724 7.992 7.452 12.96 1.728 4.968 2.592 10.296 2.592 15.984 0 5.616-.864 10.854-2.592 15.714-1.728 4.86-4.212 9.09-7.452 12.69-3.24 3.6-7.218 6.426-11.934 8.478-4.716 2.052-10.026 3.078-15.93 3.078zm0-14.148c3.816 0 7.056-.738 9.72-2.214 2.664-1.476 4.824-3.438 6.48-5.886 1.656-2.448 2.862-5.202 3.618-8.262a39.254 39.254 0 0 0 1.134-9.45c0-3.384-.378-6.66-1.134-9.828-.756-3.168-1.962-5.994-3.618-8.478s-3.816-4.464-6.48-5.94c-2.664-1.476-5.904-2.214-9.72-2.214-3.816 0-7.056.738-9.72 2.214-2.664 1.476-4.824 3.456-6.48 5.94-1.656 2.484-2.862 5.31-3.618 8.478a42.196 42.196 0 0 0-1.134 9.828c0 3.24.378 6.39 1.134 9.45.756 3.06 1.962 5.814 3.618 8.262 1.656 2.448 3.816 4.41 6.48 5.886 2.664 1.476 5.904 2.214 9.72 2.214zM88.264 205.728c-5.976 0-11.304-1.026-15.984-3.078-4.68-2.052-8.64-4.878-11.88-8.478-3.24-3.6-5.724-7.83-7.452-12.69-1.728-4.86-2.592-10.098-2.592-15.714 0-5.688.864-11.016 2.592-15.984 1.728-4.968 4.212-9.288 7.452-12.96 3.24-3.672 7.2-6.552 11.88-8.64 4.68-2.088 10.008-3.132 15.984-3.132 4.176 0 8.172.612 11.988 1.836 3.816 1.224 7.218 3.006 10.206 5.346 2.988 2.34 5.454 5.238 7.398 8.694 1.944 3.456 3.168 7.416 3.672 11.88h-16.416a13.846 13.846 0 0 0-1.944-5.346 17.044 17.044 0 0 0-3.78-4.266 17.433 17.433 0 0 0-5.13-2.862 17.627 17.627 0 0 0-5.994-1.026c-3.816 0-7.056.738-9.72 2.214-2.664 1.476-4.824 3.456-6.48 5.94-1.656 2.484-2.862 5.31-3.618 8.478a42.196 42.196 0 0 0-1.134 9.828c0 3.24.378 6.39 1.134 9.45.756 3.06 1.962 5.814 3.618 8.262 1.656 2.448 3.816 4.41 6.48 5.886 2.664 1.476 5.904 2.214 9.72 2.214 5.184 0 9.234-1.584 12.15-4.752 2.916-3.168 4.698-7.344 5.346-12.528h16.416c-.432 4.896-1.548 9.27-3.348 13.122-1.8 3.852-4.176 7.146-7.128 9.882-2.952 2.736-6.408 4.824-10.368 6.264-3.96 1.44-8.316 2.16-13.068 2.16zm61.528-78.84h17.388L196.016 204h-17.604l-5.832-17.172h-28.836L137.696 204h-17.064l29.16-77.112zm18.36 47.304l-9.72-28.296h-.216l-10.044 28.296h19.98zm29.56-47.304h16.956v29.592h31.212v-29.592h16.956V204H245.88v-33.264h-31.212V204h-16.956v-77.112zm75.028 0h16.848v53.46h.324l29.376-53.46h19.008V204h-16.848v-53.568h-.324L291.748 204H272.74v-77.112z"/><path fill="none" stroke="currentColor" stroke-width="5" d="M2.5 2.5h388v236H2.5z"/></svg>