<svg xmlns="http://www.w3.org/2000/svg" width="128" height="128" viewBox="0 0 128 128"><g fill="currentColor"><path d="M124.25 0h-22.5C95.546 0 90.5 5.046 90.5 11.25c0 6.203 5.046 11.25 11.25 11.25h3.75c4.135 0 7.5 3.366 7.5 7.5 0 2.499-1.31 4.608-3.195 5.972 1.409 2.11 2.654 4.332 3.807 6.61C117.745 39.908 120.5 35.28 120.5 30c0-8.273-6.727-15-15-15h-3.75A3.753 3.753 0 0 1 98 11.25a3.753 3.753 0 0 1 3.75-3.75h22.5A3.748 3.748 0 0 0 128 3.75 3.748 3.748 0 0 0 124.25 0zM48.798 68.246a56.199 56.199 0 0 0-5.645 9.626 48.745 48.745 0 0 1 27.194 24.04c3.498 6.973 5.157 14.783 5.091 22.487 1.793-.639 3.571-1.311 5.284-2.124C82.169 118.021 83 113.312 83 108.75c0-20.144-14.586-37.11-34.202-40.504z"/><path d="M64.84 53.392c-3.825 2.36-7.376 5.119-10.523 8.295C75.345 67.278 90.5 86.407 90.5 108.75c0 2.643-.268 5.502-.686 8.08.858-.625 1.657-1.575 2.479-2.247C95.973 108.296 98 101.105 98 93.75c0-19.821-13.888-36.522-33.16-40.358z"/><path d="M98.143 33.293A55.815 55.815 0 0 0 79.25 30C48.232 30 23 55.232 23 86.25c0 11.438 3.528 22.645 9.834 31.888-1.455-5.388-2.334-11.196-2.334-16.888 0-34.948 28.666-63.75 63.75-63.75 2.621 0 5.208.193 7.77.503a56.694 56.694 0 0 0-3.877-4.71z"/><path d="M63.642 105.278a41.257 41.257 0 0 0-23.194-20.41A56.047 56.047 0 0 0 38 101.25c0 8.639 1.944 17.274 5.672 24.903C47.877 127.159 52.241 128 56.75 128c3.794 0 7.493-.521 11.128-1.266.426-7.278-.96-14.931-4.236-21.456zM107.2 46.53A56.244 56.244 0 0 0 94.25 45c-6.853 0-13.395 1.293-19.474 3.547C93.027 55.767 105.5 73.35 105.5 93.75c0 2.13-.272 4.231-.548 6.328 1.701-2.828 3.234-5.775 4.426-8.925A56.128 56.128 0 0 0 113 71.25c0-8.877-2.123-17.247-5.8-24.72z"/><path d="M56.75 15C25.732 15 0 40.232 0 71.25c0 18.376 9.396 34.92 23.063 45.191-4.86-9.118-7.563-19.593-7.563-30.191 0-35.153 28.597-63.75 63.75-63.75 2.01 0 3.995.138 5.971.321C76.857 17.885 67.146 15 56.75 15z"/></g></svg>