<svg xmlns="http://www.w3.org/2000/svg" width="48" height="48" viewBox="0 0 48 48"><path fill="currentColor" d="M24 48c13.255 0 24-10.745 24-24S37.255 0 24 0 0 10.745 0 24s10.745 24 24 24zm10.9-20.8c2.317 2.183 2.797 3.249 2.876 3.38.958 1.62-1.06 1.748-1.06 1.748l-3.865.053s-.833.168-1.925-.595c-1.444-1.008-3.422-3.632-4.483-3.29-1.077.347-.734 3.095-.734 3.095s.007.336-.238.607c-.266.286-.79.178-.79.178h-1.113s-4.126.017-7.488-3.542c-3.665-3.884-6.732-11.136-6.732-11.136s-.185-.464.014-.706c.23-.276.85-.271.85-.271h4.133s.389.053.667.264c.23.168.36.494.36.494s.5 1.351 1.385 2.907c1.725 3.038 2.53 3.7 3.117 3.374.855-.473.598-4.289.598-4.289s.017-1.39-.43-2.004c-.345-.482-.996-.621-1.284-.66-.235-.026.147-.578.644-.823.744-.37 2.059-.391 3.612-.377l1.665-.002c1.426.35.941 1.704.941 4.946 0 1.042-.182 2.501.552 2.983.32.212 1.46.243 3.394-3.105.919-1.589 1.648-3.082 1.648-3.082s.154-.333.384-.475c.243-.146.564-.149.564-.149l4.352.02s1.308-.164 1.519.441c.223.629-.535 1.73-2.311 4.142-2.921 3.96-3.245 3.593-.824 5.878l.003-.005z"/></svg>