<svg xmlns="http://www.w3.org/2000/svg" width="32" height="32" viewBox="0 0 32 32"><path fill="currentColor" d="M32 6.083a13.685 13.685 0 0 1-3.254 3.39c0 .091.011.233.033.424.022.192.033.334.033.425 0 1.762-.26 3.525-.78 5.288a18.71 18.71 0 0 1-2.372 5.051 20.319 20.319 0 0 1-3.78 4.27c-1.458 1.244-3.21 2.238-5.254 2.984-2.044.745-4.241 1.118-6.593 1.118-3.66 0-7.005-.984-10.033-2.95.633.045 1.153.068 1.559.068 3.05 0 5.774-.927 8.17-2.78-1.424-.022-2.695-.457-3.813-1.304a6.728 6.728 0 0 1-2.356-3.27c.384.09.802.136 1.255.136.61 0 1.186-.09 1.728-.272-1.514-.316-2.768-1.073-3.763-2.27a6.286 6.286 0 0 1-1.492-4.136v-.068c.858.452 1.841.7 2.95.745a6.397 6.397 0 0 1-2.102-2.323 6.436 6.436 0 0 1-.78-3.1c0-1.13.282-2.238.847-3.323a18.064 18.064 0 0 0 5.982 4.865c2.34 1.186 4.876 1.847 7.61 1.983-.16-.565-.238-1.062-.238-1.493 0-1.807.643-3.35 1.931-4.626C18.776 3.638 20.346 3 22.2 3c.903 0 1.774.18 2.61.542a6.06 6.06 0 0 1 2.136 1.526 12.959 12.959 0 0 0 4.169-1.594c-.475 1.537-1.435 2.746-2.881 3.627 1.378-.18 2.633-.52 3.763-1.017L32 6.083z"/></svg>