<svg xmlns="http://www.w3.org/2000/svg" width="32" height="32" viewBox="0 0 32 32"><path d="M9.5 31.912c-1.875-.063-3.688-.437-5.313-1.437C2.126 29.226.813 27.29.376 24.855.125 23.419.062 21.92 0 20.42c0-3.122 0-6.307.063-9.492 0-1.686.062-3.373.625-4.934C1.75 2.873 3.938 1 7.125.375 8.563.125 10.063.062 11.5 0c3.188 0 6.375 0 9.563.062 1.687 0 3.312.063 4.937.625 3.125 1.062 5 3.247 5.625 6.432.25 1.437.313 2.935.375 4.434 0 3.123 0 6.308-.063 9.492 0 1.687-.062 3.373-.625 4.934-1.062 3.122-3.25 4.996-6.437 5.62-1.438.25-2.938.313-4.375.375-1.5.063-8.813 0-11-.062m19.625-16.175v-3.81c-.063-1.186-.125-2.435-.25-3.621-.25-2.686-1.875-4.559-4.5-5.059-1.438-.25-2.938-.312-4.375-.312a170.828 170.828 0 0 0-8 0c-1.375 0-2.75.063-4.125.25C5.562 3.56 4 4.87 3.375 7.182 3.125 7.869 3 8.68 3 9.43c-.063 2.873-.125 5.808-.125 8.68.063 1.874.063 3.685.25 5.558.25 2.686 1.875 4.56 4.5 5.059 1.438.25 2.938.312 4.375.312 2.688.062 5.313.062 8 .062 1.25-.062 2.438-.124 3.688-.25 1.125-.124 2.187-.436 3.125-1.186 1.5-1.186 2.062-2.81 2.125-4.621.125-2.436.187-7.307.187-7.307M16 24.167c-4.563 0-8.188-3.621-8.188-8.242 0-4.56 3.688-8.181 8.313-8.119 4.5 0 8.125 3.685 8.063 8.306 0 4.434-3.688 8.056-8.188 8.056m0-2.873a5.306 5.306 0 0 0 5.313-5.308A5.306 5.306 0 0 0 16 10.68a5.306 5.306 0 0 0-5.313 5.308A5.306 5.306 0 0 0 16 21.295m8.563-15.737c1.062 0 1.937.812 1.875 1.936 0 1.062-.875 1.936-1.938 1.873-1.063 0-1.938-.874-1.875-1.936 0-1.061.875-1.873 1.938-1.873" fill="currentColor"/></svg>