<svg height="512pt" preserveAspectRatio="xMidYMid meet" viewBox="0 0 512 512" width="512pt" xmlns="http://www.w3.org/2000/svg"><g transform="matrix(.1 0 0 -.1 0 512)"><path d="m3728 4705c-206-56-327-283-258-485 35-102 95-170 198-221 58-30 71-32 210-39 120-6 154-11 187-28 57-30 90-61 116-111 44-85 35-183-23-261-18-24-37-48-41-54-5-7 12-45 42-95 28-45 53-92 56-102 10-30 32-23 85 27 193 180 219 464 62 672-93 124-231 197-382 201-215 6-236 13-265 84-16 41-9 94 18 128 33 43 43 44 474 45 297 1 420 4 441 13 41 17 76 83 69 128-8 49-33 82-72 99-48 20-845 19-917-1z"/><path d="m2207 4214c-1-1-31-5-67-8-448-41-863-238-1190-566-278-279-455-623-526-1025-19-105-26-385-13-495 60-498 302-937 702-1274 31-27 57-45 57-42 0 4-11 28-24 54-35 71-113 269-132 337-24 90-63 269-69 317-24 205-24 467-1 593 2 11 7 43 11 70 5 28 9 52 10 55 0 3 4 23 9 45 23 125 117 380 194 530 40 77 151 252 191 301 14 18 42 51 61 75 291 363 786 657 1255 744 168 31 446 46 548 30 65-11 40 11-80 67-218 103-422 162-638 183-57 6-294 13-298 9z"/><path d="m2890 3700c-257-30-443-87-676-206-270-138-474-314-682-589-18-24-92-146-125-205-80-148-170-405-192-550-21-145-27-215-26-335 1-202 10-280 52-452 46-193 175-491 255-589l23-29-14 47c-7 25-16 61-19 80-3 18-10 56-15 85-26 132-35 436-19 578 63 546 329 1049 738 1395 36 30 67 58 70 61 6 6 165 118 200 140 33 21 122 69 190 104 30 15 63 32 73 37 109 56 388 136 567 163 140 21 416 27 518 11 23-4 42-4 42-1 0 9-49 73-89 118-38 41-114 70-266 102-198 41-433 55-605 35z"/><path d="m3497 3204c-1-1-40-5-87-8-47-4-92-9-100-11s-31-6-50-9c-67-11-121-24-249-63l-85-25 105-52c135-67 291-169 360-235 122-116 173-171 234-252 130-173 226-369 279-570 44-165 50-221 51-436 0-99 3-179 6-177 11 6 106 206 133 278 28 72 71 227 81 286 3 19 10 53 14 75 5 22 9 47 9 55s3 38 7 65c16 122 9 336-15 490-27 168-84 355-148 485l-27 55-85 17c-47 9-123 20-170 24-83 6-259 12-263 8z"/><path d="m2590 2902c-53-17-365-262-350-275 3-2 48-18 100-36 194-67 387-177 540-310 106-92 172-163 252-272 247-336 353-727 315-1153-4-43-10-83-13-87-3-5-1-9 4-9 22 0 97 98 132 173 99 214 133 366 134 592 0 177-5 231-35 349-115 464-478 850-929 990-47 15-96 30-110 35-14 4-32 5-40 3z"/><path d="m2028 2388c-50-69-174-286-166-293 2-2 32-15 68-30 208-87 374-199 535-360 133-134 225-260 304-420 113-226 162-413 177-665 4-58 7-106 8-107 0-1 40 15 88 34l86 36 17 61c57 201 72 374 49 566-57 481-365 902-806 1104-76 35-214 82-271 91-17 3-39 8-48 11-10 3-25-8-41-28z"/><path d="m1751 1842c-13-25-48-183-62-282-14-94-18-359-7-460 19-172 65-355 129-515 50-125 48-123 88-130 19-3 37-7 40-9s24-7 46-10c22-4 52-9 67-11 106-19 170-23 293-20 77 2 156 7 175 10 59 11 83 15 123 21l38 7-2 116c-12 579-334 1051-871 1280-45 19-48 19-57 3z"/></g></svg>