<?xml version="1.0" standalone="no"?>
<!DOCTYPE svg PUBLIC "-//W3C//DTD SVG 20010904//EN"
 "http://www.w3.org/TR/2001/REC-SVG-20010904/DTD/svg10.dtd">
<svg version="1.0" xmlns="http://www.w3.org/2000/svg"
 width="512.000000pt" height="512.000000pt" viewBox="0 0 512.000000 512.000000"
 preserveAspectRatio="xMidYMid meet">
<metadata>
Created by potrace 1.11, written by Peter Selinger 2001-2013
</metadata>
<g transform="translate(0.000000,512.000000) scale(0.100000,-0.100000)"
fill="#000000" stroke="none">
<path d="M3938 5101 c-292 -94 -414 -424 -250 -676 51 -80 128 -142 222 -180
34 -13 87 -20 215 -25 155 -6 174 -9 220 -33 128 -65 191 -197 162 -336 -10
-50 -32 -86 -83 -141 l-32 -35 45 -75 c26 -41 58 -97 72 -124 14 -28 32 -52
38 -54 7 -2 48 32 90 75 202 203 238 490 92 731 -75 124 -184 210 -324 257
-65 22 -103 28 -210 31 -169 6 -188 10 -226 41 -75 64 -69 176 14 237 28 20
41 21 530 26 525 5 526 5 568 49 19 20 39 75 39 109 0 33 -38 98 -69 120 -24
16 -70 17 -541 19 -474 2 -520 0 -572 -16z"/>
<path d="M2065 4513 c-107 -13 -252 -37 -320 -54 -554 -137 -1023 -458 -1347
-924 -194 -278 -310 -568 -373 -930 -20 -118 -27 -404 -13 -557 15 -165 89
-454 155 -611 41 -98 148 -296 207 -386 100 -149 171 -235 302 -365 103 -104
244 -226 244 -213 0 2 -15 33 -33 68 -64 125 -128 292 -171 450 -63 230 -86
391 -91 629 -10 483 99 908 345 1338 56 98 186 282 265 372 56 65 230 236 290
286 33 27 62 52 65 55 3 3 50 38 105 77 280 200 634 354 965 421 190 38 282
46 532 46 113 0 201 3 195 8 -15 11 -233 118 -273 135 -129 53 -371 119 -504
137 -30 5 -66 10 -80 12 -32 6 -425 11 -465 6z"/>
<path d="M3167 3924 c-1 -1 -56 -4 -122 -7 -168 -9 -316 -35 -495 -87 -96 -28
-257 -87 -275 -100 -5 -4 -20 -11 -32 -14 -57 -18 -377 -208 -413 -246 -3 -3
-36 -30 -75 -61 -116 -94 -227 -207 -360 -370 -96 -117 -238 -368 -307 -544
-61 -155 -114 -350 -133 -495 -27 -200 -27 -462 -2 -640 46 -315 160 -625 323
-882 33 -52 44 -64 39 -43 -40 174 -49 225 -70 400 -12 103 -13 412 -1 495 3
19 7 55 10 80 6 48 7 54 31 170 22 109 25 123 32 145 4 11 8 25 9 30 7 39 89
265 121 335 37 82 103 210 141 276 28 48 148 226 169 249 10 12 33 40 52 64
39 50 115 133 182 200 388 384 858 622 1414 716 28 4 86 11 185 20 114 11 395
5 488 -10 27 -5 31 -10 -66 107 -35 42 -77 81 -93 87 -16 6 -41 15 -56 21 -29
10 -183 49 -218 56 -133 24 -211 35 -288 40 -101 6 -188 10 -190 8z"/>
<path d="M3677 3324 c-1 -1 -39 -5 -84 -8 -46 -4 -91 -9 -100 -10 -10 -2 -40
-7 -68 -10 -27 -4 -88 -16 -135 -27 -47 -11 -94 -22 -105 -24 -11 -3 -58 -17
-105 -33 l-84 -29 99 -47 c87 -41 291 -159 305 -176 3 -3 25 -20 49 -38 103
-74 252 -219 346 -338 223 -279 375 -641 413 -984 9 -85 9 -360 0 -430 l-8
-55 26 40 c34 55 134 260 134 277 0 8 4 18 9 24 26 28 106 322 127 469 20 143
26 433 12 586 -14 149 -86 450 -133 554 -7 17 -20 48 -29 70 -9 22 -26 61 -37
86 l-21 45 -96 17 c-118 21 -138 24 -227 32 -61 6 -283 13 -288 9z"/>
<path d="M2489 2898 c-123 -84 -309 -240 -309 -258 0 -4 28 -15 63 -25 108
-30 253 -93 407 -178 174 -95 413 -302 546 -472 178 -227 312 -505 374 -773
25 -112 28 -125 45 -267 12 -94 4 -336 -13 -448 l-9 -57 21 17 c57 49 95 99
137 184 132 267 192 582 165 874 -4 44 -9 87 -11 95 -2 8 -6 33 -10 55 -44
296 -209 618 -438 854 -182 186 -403 327 -642 409 -76 26 -202 62 -217 62 -3
0 -52 -32 -109 -72z"/>
<path d="M1907 2323 c-62 -94 -146 -242 -153 -270 -4 -13 -10 -26 -15 -29 -18
-11 -8 -21 44 -38 79 -28 258 -122 355 -186 358 -235 624 -571 764 -964 72
-202 115 -431 117 -623 1 -51 5 -73 14 -73 6 0 54 17 106 38 l94 38 18 60 c28
89 58 241 66 335 10 122 5 323 -10 394 -3 11 -8 40 -12 65 -4 25 -9 56 -12 69
-11 63 -87 270 -132 361 -183 366 -498 654 -876 803 -89 36 -271 87 -305 87
-12 0 -35 -25 -63 -67z"/>
<path d="M1600 1705 c-11 -29 -37 -128 -44 -170 -3 -16 -8 -43 -12 -58 -6 -30
-7 -33 -19 -132 -3 -33 -9 -71 -11 -85 -5 -32 -5 -323 1 -375 19 -181 34 -268
75 -420 30 -115 61 -203 112 -320 17 -38 31 -71 32 -71 2 -4 253 -53 296 -59
74 -10 350 -14 415 -5 156 20 244 36 253 44 2 3 4 49 4 103 0 683 -387 1272
-1010 1537 l-83 36 -9 -25z"/>
</g>
</svg>
